<svg xmlns="http://www.w3.org/2000/svg" xmlns:xlink="http://www.w3.org/1999/xlink" width="1387" height="228" viewBox="0 0 1387 228"><defs><style>.a{fill:#fff;stroke:#707070;}.b{opacity:0.6;clip-path:url(#a);}.c{opacity:0.1;}.d,.e{fill:none;}.e{stroke:#232323;stroke-linejoin:round;stroke-width:1.34px;}</style><clipPath id="a"><rect class="a" width="1387" height="228" transform="translate(-0.203 8.582)"></rect></clipPath></defs><g class="b" transform="translate(0.203 -8.582)"><g class="c" transform="translate(-15.521 -38.173)"><path class="d" d="M-148.5,386.8V10.4H1209.708V386.8" transform="translate(171.047 28.991)"></path><path class="e" d="M368.905,339.644c.975-8.518,3.047-14.237,6.907-21.8,7.07-13.877,14.871-30.393,29.742-37.472,7.314-3.479,16.334-3.279,24.135-5.4,8.045-2.319,13.286-9.478,19.1-15.077a66.222,66.222,0,0,1,19.259-13.277c3.738-1.84,6.3-3.759,4.266-8.318-1.26-2.719-5.16-6.479-7.72-8.2-5.932-4-13.9-5.159-20.031-8.878-8.126-4.879-15.4-11.477-23.85-15.876-7.232-3.759-16.049-5.2-23.688-8.158-5.16-2.04-11.539-9.038-16.212-4.4-6.42,6.479-10.361,15.556-16.984,21.875-5.648,5.4-14.1,8.038-19.665,13.517s-5.038,14.077-5.526,21.035c-.528,7.6-2.113,16.236.163,23.755,2.56,8.318,10.2,12.917,15.562,19.236,1.788,2.04,4.794,5.959,5.119,8.518.447,3.759-2.844,6.519-5,8.878-6.135,6.478-11.742,11.637-12.961,20.835M535.248,268.46c9.873-2.4-1.138-13.2-4.957-15.636-5.485-3.639-13.774-9.038-20.6-10.038-4.916-.68-18.2,3.439-17.674,9.6.488,6.319,11.173,9.478,16.293,10.878,9.264,2.519,17.349,4.6,26.938,5.239M779.277-88.1c-5.891,5.4-11.377,11.557-14.464,18.876s-4.266,16.036-8.939,22.755c-4.794,6.958-15.033,13.4-16.212,22.275-.528,3.959,3.982,6.958,7.313,8.158,4.51,1.6,8.7.44,13.246-.32m-.041,0a190.358,190.358,0,0,1,22.225-11.4c6.582-2.639,13-5.159,16.293-11.837,4.754-9.6,8.979-19.516,13.449-29.193m287.057-1.84c-.853,9.038,5,12.6,11.5,17.836,5.607,4.439,10.361,9.038,13.449,15.716,2.885,6.2,3.088,14.157,6.582,19.916,1.869,3.159,4.429,3.159,7.72,3.519m.041,0c13.652-4.119,27.263-7.878,41.2-11.2,7.354-1.84,15.521-2.959,22.631-5.559,6.379-2.319,11.011-6.2,5.729-12.117s-11.823-10.278-14.911-17.756M66.571,338.244c-3.25-6.119-10.889-16.876-15.155-5.359-.935,2.479-.772,5.519-1.016,8.158" transform="translate(52.961 88.1)"></path><path class="e" d="M9.273,379.667c-3.169-6.6-9.711-7.118-15.155-11.4-3.738-2.959-6.379-7.678-8.289-12-5.119-11.637-13.164-24.235-9.914-37.392C-21,306-9.986,298.606-1.047,289.848c3.738-3.679,6.907-8,7.232-13.4.366-5.839-3.088-9.358-6.785-13.557-7.151-8.2-20.966-20.035-18.731-32.473,1.178-6.8,8.207-10.678,12.067-15.876,3.372-4.519,1.95-8.2-1.422-12.477-8.532-10.6-18.446-20-26.694-30.913-3.494-4.6-6.095-9.038-7.517-14.557-1.585-6-.2-12.757-1.91-18.636-1.585-5.519-6.3-10.2-8.492-15.477a26.861,26.861,0,0,1-1.341-15.956c1.341-6.918,4.632-13.037,3.372-20.2-.935-5.559-5-11.2-9.63-14.677-4.754-3.639-11.052-6.479-16.821-3.759-5.16,2.479-8.817,8.358-12.514,12.477-7.517,8.558-18.365,19.516-16.984,31.793.65,5.959,4.469,11.2,7.232,16.4,3.088,5.959,6.054,11.317,7.314,17.956,2.072,11.357-4.469,23.475-6.3,34.512-2.194,13.717,3.088,25.794,5.648,39.071,2.275,11.557.853,20.635-3.25,31.513-4.266,11.317-11.986,24.554-9.955,37.072,1.869,11.517,6.623,21.635,6.42,33.432-.2,14.8-2.275,29.753-3.332,44.55M-148.7,6.191c8.858-.16,15.805-.52,23.891,2.959l12.677,5.279m0,0c13.814-1.44,4.673-39.351,4.673-46.949M933.422,245.857c8.329-1.44,15.846-2.719,24.3-2.8,7.476-.04,19.544,2.32,25.638-3.479,6.379-6.039,3.007-19.236,2.844-26.674-.041-7.878,2.763-15.477,2.072-23.315-1.381-15.277-14.911-28.634-13.774-44.11.65-8.8,1.422-17.676,3.982-26.114,2.4-8.158,5.241-15.756,4.429-24.235-.691-7.118.162-21.155-10.93-18.556-7.232,1.76-13.977,6.119-21.087,8.558-9.711,3.319-20.153,5.239-29.579,9.2-2.763,1.16-5.81,2.559-3.047,5.719,3.21,3.519,8.451,5.719,12.067,8.838,6.745,5.719,10.077,11.8,8.939,20.435-.975,7.678-6.3,13.717-10.767,19.876-4.916,6.678-9.142,13.6-15.4,19.036-6.907,5.959-15.155,11.637-20.356,19.236-4.591,6.679-8,15.557-11.255,22.995-2.682,6.2-7.639,16.036-4.591,22.675s13.449,11.157,20.234,13.037c7.639,2.08,16.5,2.519,24.46,2.08a61.257,61.257,0,0,0,12.067-2.319M972.752-26.2c1.91,4,8.167,6.918,11.58,9.2,4.672,3.159,8.979,5.639,12.433,10.2,6.623,8.878,5.729,20.835,8.167,31.153,1.138,4.879,3.332,6.119,8,7.878m0,.04c10.2-2.519,18.568-8.318,28.36-11.637,9.264-3.2,19.056-6.2,28.807-7.4,11.864-1.44,21.615-2.639,32.22-8.318,4.022-2.08,9.426-4.6,11.539-8.838,2.682-5.359-4.307-7.2-8.289-8.678-10.442-4-20.681-8.518-24.216-20" transform="translate(171.165 54.795)"></path><path class="e" d="M-181.81-16.576c19.1-.2,31.692,19.876,37.787,27.594,6.3,8.038,9.467,18.156,5.81,28.074s-11.58,18.116-15.4,28.034c-2.275,5.719-3.088,10.038-1.178,15.956,1.625,5.079,5.485,9.758,8.329,14.357,5.323,8.518,8.7,17,3.9,26.674-2.6,5.239-6.379,10.238-8.492,15.716-2.194,5.8-1.422,10.918.284,16.716,3.007,10.438,9.873,19.076,10.6,30.233.366,4.879-.975,9-4.591,12.277-4.185,3.759-9.873,7.238-10.767,13.237-.691,4.919,2.519,10.438,2.6,15.477.041,4.679-1.869,9.478-2.072,14.157-.325,11,6.379,20.835,8.939,31.353,2.682,10.878,1.1,20.915-1.585,31.633-.975,4.2-1.625,11.078-5.445,14-4.022,3.039-24.053,8.8-28.726,9.278M-6,329.346c-.163-3.959.65-10.518-3.535-12.877s-11.052.2-15.643,0c-6.542-.28-9.711-3.679-13.164-8.678-6.379-9.478-7.314-19.836-1.016-29.433,5.81-8.838,15.074-14.677,21.656-22.955,6.379-7.878,6.542-19.516-.284-27.114-4.591-5.159-9.711-10.078-13.936-15.557-2.6-3.439-4.673-7.238-3.332-11.4,3.332-10.4,18.2-13.2,21.453-23.675,3.535-11.317-13.286-16.556-20.234-21.435-8.776-6.2-16.13-15.317-22.1-24.115-2.885-4.359-5.282-8.638-5.16-14,.163-5.2,2.113-10.878.65-16.076-1.625-5.559-6.582-10.078-9.873-14.677-3.047-4.4-3.7-8.4-3.007-13.677.772-5.639,3.088-11.157,4.673-16.716,1.422-4.919-.041-9.118-2.275-13.757-4.429-9.118-12.352-17.236-20.519-23.195-5.241-3.8-11.052-7.2-16.5-10.758-3.819-2.519-7.517-5.159-8.979-9.718-1.747-5.559-1.869-11.877-2.844-17.676-.691-4.119-5.932-25.754-6.867-29.793M179.154-62.566c-6.379,3.919-13.286,6.639-19.584,10.718-5.973,3.919-15.4,8.038-18.406,15-2.763,6.479,4.957,13.277,8.533,17.916C154.613-12.817,159.448-6.9,163.186.1c3.332,6.119,4.429,14.077-3.819,16.276-6.785,1.84-14.383-.52-21.291,0-8.492.64-14.424,4.719-17.024,12.957a61.88,61.88,0,0,0-2.438,19.676c.284,8.2,1.1,15.557,4.307,23.195,2.885,6.8,7.842,13.077,10.28,20.155,3.047,8.718-1.341,12.317-5.16,19.676-3.047,5.719-4.307,12.8-4.957,19.2-.325,3.759.2,7.918-.65,11.557-.934,3.959-3.535,7.838-5,11.677-2.275,6.119-1.747,12.957-3.7,19.276-2.072,6.678-3.819,12.717-3.088,19.756.772,8.158,2.275,16.436,2.519,24.634.163,6.2,1.341,15-6.135,16.236-4.673.76-9.467,1.16-14.221,1.84-3.7.48-8.7,2.08-12.352,1.6-8-1-6.135-11.877-13.164-14.2-5.891-1.92-16.943,5.559-19.34-2.839-2.072-7.238-.447-14.957,1.463-22.035.975-3.639,2.4-7.278,2.519-11.158,0-4-1.747-6.519-3.982-9.8-4.469-6.758-2.885-14.917-2.763-22.595a41.317,41.317,0,0,0-4.266-20.275,42.118,42.118,0,0,0-13.164-14.917c-5.16-3.679-15.4-7.2-10.848-15.077,3.9-6.6,11.539-11.078,15.643-17.636C36.824,80.6,33.411,74,26.667,70.764c-6.542-3.119-15.724-5.159-14.79-13.877.691-6.479,7.151-14.677,2.682-21.075C10.13,29.694.663,27.294-5.472,23.5A41.558,41.558,0,0,1-19.693,9.338C-23.147,3.38-24.366-3.539-29.648-8.3-35.539-13.457-42-18.376-47.281-24.094c-3.332-3.639-13.774-13.557-6.542-17.156,6.745-3.319,17.024-2.4,24.3-3.119,9.914-1.16,36.812-1.56,33.033-16.916C1.76-68.564-3.644-74.243-8.357-79.722M537.478,358.82c6.095-4.519,11.864-9.958,17.512-15.077,4.307-3.8,8.289-8.358,8.939-14.237.691-6.439-1.706-13.517-3.982-19.516-2.4-6.439-5.932-10.438-11.377-14.637-9.914-7.678-26.41-7.038-24.5-23.315a49.19,49.19,0,0,1,2.682-9.718c.935-2.4,3.25-6.439,2.682-9.118-1.178-5.519-12.758-5.719-16.984-5.079-7.232,1.08-13.408,4.919-20.356,6.639-5.729,1.4-10.686-.52-15.521-3.479-5.932-3.639-11.742-7.2-17.959-10.278-2.6-1.32-5.973-2.4-8.289-4.239-2.844-2.239-5.16-6.039-7.557-8.838-6.3-7.4-24.378-17.636-15.033-28.034,8.492-9.358,23.85-10.718,34.455-17.156,12.758-7.678,23.119-17.4,34.171-27.234,3.576-3.2,10.4-7.4,11.336-12.717,1.138-6.8-6.907-11.677-12.027-14.357-11.986-6.319-26.207-4.239-38.884-1.32-12.677,2.879-24.622,9.558-37.015,13.6-4.429,1.44-12.352,4.439-16.537,1.4-5-3.679-1.869-13.517-5.282-18.756s-11.824-4.919-17.471-4c-6.785,1.08-12.921,3.919-18.934,6.958S349.8,133.35,344.035,136.99c-4.754,3-10.767,7.358-14.383.68-3.088-5.719-.853-13.237,1.26-18.876,2.4-6.439,5.648-11.477,9.345-17.236,2.844-4.439,8.7-10.878,6.095-16.676-2.844-6.279-10.4-8.4-16.537-9.758-5.892-1.24-12.677.68-17.512-2.559-.162-1.32,6.582-5.159,8.208-6a100.593,100.593,0,0,1,9.711-4.439,130.133,130.133,0,0,1,22.306-6c3.535-.68,7.314-1,10.686-2.08,4.632-1.4,6.785-3.319,4.266-7.718-2.6-4.6-7.395-7.878-11.539-11.2C343.263,24.895,329.529,15.3,317.665,4.179c-3.372-3.119-6.42-6.678-9.63-9.958-1.707-1.72-5.607-4.6-5.973-7.278-.975-6.6,13.936-7.878,18.365-8.4,15.805-2.08,31.651,6,46.766,9.478a99.763,99.763,0,0,0,19.828,1.92c3.535.04,8.329.2,11.742-.68,3.982-1,4.754-3.639,3.21-7.278-2.6-6.119-9.873-12.117-14.221-16.876A224.394,224.394,0,0,1,372.6-52.568M929.607-64.805c-1.138,2.359-3.047,5.319-2.072,8.078.935,2.639,4.185,4.4,6.542,5.559,6.907,3.679,15.846,6.679,21.453,12.317,4.957,5.079,6.582,11.4,7.07,18.316.488,7.118.975,15.477.163,22.555-1.178,8.4-9.751,8.4-16.13,11.837-7.354,3.919-12.067,11.637-17.431,17.8a37.846,37.846,0,0,1-15.643,11.2c-14.221,5.4-30.067,4.879-45.019,5.319-7.151.2-14.221.36-21.291,1.08-5.973.64-16.293.96-20.681,5.639-4.794,5.079,5.932,8.4,9.345,9.8l28.32,11.157c5.892,2.319,12.8,4,18.243,7.2,2.844,1.68,6.095,4.2,7.557,6.958,2.357,4.359,1.869,6.918,0,11.357-2.844,6.918-8.979,13.2-13.286,19.236-4.063,5.639-8.979,9.318-14.465,13.757-4.794,3.919-10.442,7.918-13.733,13.237-4.307,7.118-7.07,15.876-10.4,23.475-2.682,6.039-5,12.317-8.654,17.916-4.429,6.758-10.2,12-15.033,18.4-1.341,1.84-3.819,5.4-2.4,7.678,1.869,2.8,8.167,1.76,10.767,1.76,6.867,0,12.6.64,18.771,3.639,7.354,3.639,13.733,7.358,21.778,8.558s15.074,1.92,20.031,9.118c4.022,5.839,5.729,13.6,7.517,20.435,1.95,7.918,2.682,14.477-5.485,18.8-5.16,2.719-11.661,3.919-17.309,5.559l-30.148,9.118a113.951,113.951,0,0,0-35.552,17.676c-16.5,12.277,18.406,20.2,25.841,22.515,6.095,1.88,13.408,3.959,17.918,8.558,4.916,5.039,5.891,14,.284,18.876s-16.13,4.679-23.2,5.959M985.555,354.3c.528-6.6,3.088-13.277,3.25-19.916.162-7.278-1.706-14.637-8.654-17.916-6.582-3.039-15.805.48-22.469,2.04-6.7,1.56-12.514,1.88-15.4-5.2-2.844-6.918-5-13.757-9.426-19.836-4.916-6.6-10.767-11.4-8.207-20,2.275-7.6,3.372-14.2,1.26-22.035-.975-3.519-2.438-7.038-3.738-10.6-1.138-3.119-3.535-6.479-1.463-9.558,3.251-4.719,13.246-2.04,18.2-.84,7.72,1.84,15.4,5.359,23.322,3.159,3.7-1,6.379-3.319,10.28-3.519s5.729,2.239,8.776,4.559c5.892,4.439,11.539,9.718,19.381,9.8,7.232.2,14.1-2.519,18.243-8.2,5.932-8.078-1.747-12.877-7.07-18.756-4.429-4.839-7.151-11.2-11.864-15.6-6.217-5.8-14.3-6.6-21.412-10.758-5.729-3.319-6.907-9.958-6.135-16.036,1.1-8.078,2.4-14.237-.162-22.035-2.275-6.8-6.135-13.237-8-20.2-1.706-6.439-3.25-15.157-.325-21.435a14.988,14.988,0,0,1,6.623-7.038c2.357-1.4,9.467-4.2,10.686-6.519,1.341-2.719-3.535-7.038-4.916-8.8a34.2,34.2,0,0,1-5.12-8.878c-2.438-6.439-4.794-13.277-5.445-20.2-.691-6.958.162-14.4,1.422-21.315s1.178-15.876,5.891-21.6S986.693,8.059,992.95,4.339a186.167,186.167,0,0,1,19.178-10.2c14.627-6.319,29.5-6.758,45.019-8.8,6.135-.76,12.677-3.759,18.243-6.479,6.623-3.279,12.921-7.038,17.918-12.477,3.332-3.519,11.539-12.317,3.576-15.6-6.785-2.8-15.562-1.84-22.713-3.679-8.207-2.239-13.977-5.519-17.634-13.2m138.185,339.044c-7.557-.16-15.155,2.959-22.794,1.76-7.07-1.12-13.733-5.4-20.763-7.118-6.785-1.6-14.424-1.12-21.169.2s-15.887,3.479-20.762,8.838c-11.255,12.6,2.763,30.913,8.857,42.67,2.6,5.079,5.729,12,2.844,17.636-3.25,6.119-14.586,5.359-20.315,6.639-6.907,1.44-13.774,3.679-20.681,5.559-6.582,1.84-13.9,2.959-20.072,5.959M818.806-87.4c-8.817,5.079-26.613,9-24.988,22.035a64.031,64.031,0,0,0,14.14,32.753c1.706,2.04,3.9,3.759,5.81,5.639,2.357,2.239,5.892,3.959,1.91,6.479-2.113,1.4-5.648,1.32-8,1.84-2.682.48-5.241,1.24-7.964,1.08-5.891-.48-10.848-2.359-16.13-4.519-5.81-2.359-12.311-6.319-18.446-7.518-11.986-2.319-22.388,13.757-29.173,20.835C728.118-.62,719.464,6.5,711.744,14.9S697.807,33.053,694.557,44.17c-3.169,10.718-5.648,23.515-.488,33.992,1.95,3.959,9.426,12.757,1.585,14-4.591.76-11.255-.52-15.643-1.88-5.485-1.68-10.2-3.639-10.361-9.758-.2-7.118.041-12.477-1.95-19.236-1.585-5.159-3.372-10.438-8.533-13.2-2.275-1.16-6.907-1.32-8.532-3.2-2.4-2.839,2.072-5.4,3.819-7.278,4.185-4.359,6.745-8.518,7.517-14.477.691-5.519-.488-11,.691-16.516,2.519-11.357,9.955-21.4,14.627-31.993,2.519-5.639,4.022-11.677,6.582-17.236s6.054-10.758,8.776-16.236m-895.26,4.8c-3.25,5.639-.284,10.718,4.063,15,10.28,9.918,26.207,6,39.371,7.518a34.208,34.208,0,0,0,9.264-.2m0,0c9.264-9.758,2.56-25.634,4.266-37.672m-35.958,48.589c19.1-1.4,26.938,9.438,35.349,15.8,3.9,3,6.867,3.519,11.742,3.159m0,.04C-127-7.458-128.584-17.3-129.6-25.494c-1.463-11.477-4.063-23.435-4.591-35.032M231.081,182.779c5.16-5.839,7.354-14,10.4-21.075,2.682-6.2,5.607-12.037,6.379-18.8,1.788-14.557.488-29.913-4.916-43.47l-5.688-14.557c-.935-2.319-2.194-6.2-4.916-6.519-4.754-.64-10.239,16.2-11.742,19.556-3.088,7.238-4.307,14.677-5.932,22.435-1.463,6.918-4.266,13.517-5.485,20.435-1.585,8.158,2.519,16.516,6.542,23.355,4.022,6.958,8.939,13.6,15.358,18.636M236.2,52.928c5.648-6.519,15.358-14.357,13.652-23.955-.772-4.439-3.088-8.678-5.729-12.477-2.357-3.319-7.557-7.038-7.964-11.2-.975-.16-5.485,23.435-5.973,27.314-.488,4.679-1.138,8.718-.447,13.4.772,4.6.488,11.8,6.42,6.958" transform="translate(203.991 87.68)"></path><path class="e" d="M1027.263,434.162c2.56-5.839,2.113-9.038-.528-14.677l-5.892-12.557c-1.138-2.4-3.088-5.319-3.738-7.918-1.422-6.319,4.672-11,10.28-12.477,5.932-1.56,11.824-.04,17.674.84,6.582,1.08,13.408,2.719,20.031,2.8,7.557,0,10.2-5.319,15.805-9.278,3.007-2.16,4.957-3,8.329-1.84a56.116,56.116,0,0,1,8.532,4.2c1.95,1.12,5.444,3.639,6.867.52,1.1-2.319-1.26-6.6-3.047-8-5.241-4.2-12.6-.84-17.268-5.559-3.982-4-6.7-10.918-7.964-16.436-1.422-6.6.162-12.8,1.26-19.356a33.29,33.29,0,0,0-1.341-16.076c-3.7-11.557-10.93-23.315-11.174-35.792-.2-13.237,7.354-25.274,7.842-38.471.2-5.519-.447-11.157-.772-16.676-.447-7.918-.447-16.036-1.341-23.955-.488-4.359-1.91-11.157-7.8-10.038-5.973,1.12-11.336,7.678-15.643,11.4-20.762,17.956-48.148,15.117-73.623,19.516-1.91.36-6.135,1.32-6.3,3.679-.041,2.08,3.819,4.239,5.323,5.039,6.867,3.839,14.586,6.679,21.737,10.038,10.076,4.6,22.794,12.037,17.959,25.034-2.072,5.519-6.42,10.278-9.873,15-3.738,5.159-7.232,10.6-11.58,15.157-7.964,8.2-18.731,13.4-24.5,23.515-7.354,13.2-12.677,27.874-18.893,41.591-1.95,4.239-4.794,9.318-.04,12.757,5.444,3.959,12.961,6.439,19.056,9.438a43.485,43.485,0,0,0,14.1,4.4c7.476.96,14.14,1.12,20.681,5.159,4.673,2.839,5.648,7.358,7.476,12.117,2.682,7.358,4.957,15,8.045,22.075,2.275,5.159,5.12,8.558,10.442,4.879M60.167,508.585c-4.51-8.078-7.639-17.236-11.377-25.714-3.088-7.118-7.314-14.557-6.3-22.555,1.1-8.638,5.445-17.236,10.2-24.554,4.266-6.6,12.514-11.078,15.805-18.116,2.4-5.159,1.91-8.318-.691-13.277-1.95-3.759-5.119-7.2-7.557-10.6-4.794-6.6-11.092-14.557-13.164-22.515-2.56-9.6,2.844-15.117,5.241-23.835,1.95-7.2-2.682-13.237-7.029-18.636-6.095-7.6-13.083-14.637-19.543-21.875-4.916-5.4-8.979-11.637-13.408-17.476-1.138-1.24-7.029,12-7.07,12.237a70.931,70.931,0,0,0-4.266,11.357c-2.357,9.118-4.469,17-3.25,26.474,2.357,18.756,10.076,36.432,1.95,55.028-3.738,8.8-10.239,17.676-11.539,27.314C-13.009,430.882-9.23,440-8.621,449c1.138,19.2-1.422,38.311-1.585,57.507" transform="translate(90.041 -80.761)"></path><path class="e" d="M26.3,379.451c-1.463-5.879-4.185-9.038-10.361-10.2-7.232-1.32-10.848-2.959-14.465-9.278-5.485-9.358-13.652-22.235-9.467-33.273,2.275-6,4.51-10.4,9.02-15.157,4.794-5.079,10.686-9.2,15.4-14.4,8.167-9.038,7.029-19.036-.772-27.474-6.582-7.238-23.4-20.435-16.943-32.033,4.429-7.718,25.963-15.157,15.724-26.434-3.819-4.2-9.467-6.958-13.652-10.718a101.578,101.578,0,0,1-12.067-12.957c-4.063-5.039-8.289-9.8-11.661-15.317s-4.185-10.718-3.982-17.036-.041-10.6-3.494-15.956c-3.088-4.879-7.8-10.278-8.7-16.236-.975-6.479,1.869-13.277,3.535-19.356,1.788-6.319,2.113-11.4-.975-17.476-4.794-9.478-15.4-19.036-25.516-22.755-5.282-1.92-11.58-3.039-15.846,1.16-4.591,4.679-6.42,12.037-9.63,17.836-5.81,10.4-13.774,19.036-17.634,30.393-4.266,12.4,7.639,22.435,12.027,33.113,5.323,12.8-.488,22.555-4.022,34.992a45.932,45.932,0,0,0-1.91,17.4c.488,6,3.047,11.8,4.794,17.476,3.25,10.238,6.217,21.875.447,31.793-1.625,2.8-4.266,5.959-5.282,9.038-1.016,3.119-.935,7.038-1.26,10.238-.772,6.2-3.088,12-4.307,18.116-2.194,11.158,5.119,22.115,7.029,32.913,2.357,13.437-.691,27.234-2.113,40.671-.488,4.719-.853,9.958-2.763,14.357-3.535,8.038-10.767,2.319-16.7.64a14.935,14.935,0,0,0-14.465,2.839M155.51-14.861c-5.241,6.519-7.151,13.877-3.169,21.755,2.885,5.719,6.623,11,9.426,16.716,1.95,4.119,2.763,6.958-.691,10.238-4.185,3.919-8.817,5.959-11.824,10.918-3.088,5.359-4.307,9.2-5.648,15.277-2.194,9.718-3.047,20.275-3.535,30.153-.528,10.2,2.072,19.916,2.072,29.953,0,5.359-3.088,9.118-5.729,13.677-2.763,4.719-4.185,7.518-5.16,12.8-1.95,10.4-5.648,18.476-11.824,27.234-.975,1.4-2.885,4.4-5.119,3.919-1.869-.32-3.25-3.919-3.982-5.319a106.854,106.854,0,0,1-5.648-13.517c-1.625-4.879-4.185-10.038-4.429-15.157-.2-5.4,2.56-10.758,4.063-16.036,2.885-9.958,1.463-18.076-1.869-27.594-1.95-5.519-1.016-9-.163-14.837.772-5.4.447-9.558-.2-15.077-1.341-11.157-12.961-13.277-21.9-17.156-9.02-3.919-17.878-8.4-22.1-17.676-3.494-7.438-8.126-18.076-1.138-24.395C64.416,4.215,74.208-1.384,73.6-12.9m586.547,402.47c4.673-3.2,7.557-8.358,2.6-12.6-3.535-3.039-9.426-3.119-13.49-5.4a15.145,15.145,0,0,1-8.045-11.2c-.935-5.4,2.113-10.718,3.25-16.036.853-3.919-.772-7.878-3.007-11.2-2.844-4.4-6.135-9.758-10.564-12.717-7.395-5.039-21.9-6.479-17.878-18.436,2.4-7.118,13.936-19.556,8.329-27.714-2.763-4-9.629-5.319-13.774-6.678a62.475,62.475,0,0,1-13.611-6,48.858,48.858,0,0,0-26.695-7.118c-10.889.28-20.478,2.359-30.6-2.559-4.266-2.08-10.442-4-13.286-8.158-2.682-3.919.487-7.918,3.535-10.6,8.167-7.118,18.081-14.2,27.873-18.876,8.207-3.919,17.674-5.639,25.313-10.6,5.81-3.759,11.5-7.6,17.268-11.4,3.738-2.4,6.745-4.239,8.533-8.518,1.788-4,.65-9.918-2.56-13.2-3.86-3.919-9.955-2.639-15.155-2.8-11.336-.28-17.146-8.8-24.013-16.556-3.088-3.519-5.485-6.6-9.914-8.638-5.119-2.359-11.173-2.319-16.7-2.4a117.629,117.629,0,0,0-26.126,2.519l-20.356,3.759c-4.429.84-9.629,2.719-14.1,2.8-9.02,0-16.334-7.678-24.825-9.558-8.045-1.84-26.369-1.84-27.588-12.4-1.463-12.877,13.124-13.757,22.388-16.916,8.167-2.719,20.031-7.918,11.986-17.476-5.891-6.958-14.79-13.2-22.794-17.6-8.979-4.919-20.031-9.478-26.857-17.4-1.463-1.72-3.25-4-2.56-5.839.935-2.239,3.332-2.08,5.323-2.319a59.973,59.973,0,0,1,13.652-.48c10.2,1.24,20.315,3.2,30.6,4.119s20.519,1.32,30.636,3.039c11.173,1.92,22.428,5.039,33.8,4.719a28.68,28.68,0,0,0,13-3.519c3.332-1.72,9.02-5.639,7.517-10.038-2.844-8.078-17.756-12.6-24.7-15.956-8.979-4.359-17.918-8.638-27.1-12.6-9.873-4.239-21.941-7.4-28.482-16.516-5.973-8.358,16.659-8.358,21.453-8.4A327.6,327.6,0,0,0,516.191-7.9c11.011-1.24,21.738-1.16,32.789-1.24,4.916-.04,8-.84,12.758-2.359,4.266-1.4,9.955-2.719,11.742-7.4m348.41,4.839c-4.185,2.479-7.557,5.8-2.885,9.918C922.5-1.1,927.781.3,932.251,1.575c13.611,3.759,57.371,5.4,42.256,29.633-3.007,4.839-7.313,8.718-10.767,13.077-3.169,4-5.648,8.718-8.329,13.077-5.607,9-14.586,11.078-24.7,12.037-23.81,2.359-47.863,2.08-71.713,2.839-6.907.2-17.268-.64-21.656,5.959-1.138,1.68-1.422,4.839-1.95,6.639l-3.494,11.557c-1.26,4.239-3.25,8.4-.772,12.557,2.275,3.839,8,6.039,12.027,7.878,4.469,1.92,8.939,4.2,13.611,5.359,11.5,2.719,23.85,3.639,34.7,8.518,3.535,1.6,8.776,4.4,9.955,8.318,1.585,5.079-2.072,10.878-5.648,14.2-6.785,6.319-17.878,6.479-22.875,15.077-3.372,5.719-5.485,12.6-8.126,18.636-1.747,4.119-3.047,7.2-3.738,11.557-1.625,10.438-2.844,20.435-10.767,28.234-7.232,7.118-15.359,14.4-23.85,20-9.142,5.959-18.731,11.317-22.956,21.8-1.869,4.6-3.982,11.2-1.869,16.2,2.357,5.4,8.451,3.159,12.677,2.319,4.957-.96,9.589-2.08,14.627-2.04,5.323.04,11.173.84,16.334,0,6.054-.96,11.7-4.2,17.756-5.079,5.445-.76,8.207.52,12.677,3.2a137.328,137.328,0,0,0,13.936,7.6c3.535,1.56,12.23,3.519,11.255,9-1.381,7.518-20.8,11.317-26.248,13.2-9.873,3.439-19.543,6.759-29.092,10.918-9.508,4.2-20.844,7.918-29.01,14.677-8.451,6.958-11.742,18.556-5.81,28.274,5.932,9.758,17.959,12.237,27.182,17.636,1.26.76,3.7,1.76,4.063,3.279.935,3.039-2.763,4.239-4.794,5.519-4.591,2.719-10.2,3.679-15.318,5.239m425.527-128.171c-9.711,5.239-19.747,12.957-31.408,10.038-5.241-1.32-9.954-4.719-15.2-5.839a31.9,31.9,0,0,0-13.611.28c-10.361,2.559-19.99,6.918-29.5,11.637-10.361,5.159-19.056,10.238-26.857,18.756-6.7,7.358-9.02,17.236-9.142,26.914,0,5.839.772,11.517-1.585,16.916-1.95,4.559-5.729,6.918-10.361,8.878-5.932,2.639-12.474,4-18.365,6.8-4.266,2.04-8,5.519-11.742,8.318-4.063,3.039-8.289,7.118-13.246,8.838s-6.3-2.08-6.867-6.479c-1.341-10.718.853-22.755-3.372-32.953-3.86-9.278-13.977-15.477-22.794-19.676-5.485-2.639-11.336-2.4-16.821-4.519-5.973-2.359,1.1-7.238,4.632-8.4,4.429-1.44,9.63-1.6,14.14-2.359,6.745-1.12,13.611-1.92,20.316-3.279,9.345-1.84,16.537-6,23.891-11.8,8.167-6.439,16.537-12.717,23.85-20.2,4.307-4.439,8.289-9.318,12.474-14,2.4-2.719,7.354-7.238,6.867-11.157-.65-5.2-8.939-3.519-12.311-3.479-5.648.04-11.823.92-17.471.28-4.754-.52-9.264-2.359-12.027-6.2-3.047-4.2-5.648-8.678-9.02-12.717-3.535-4.119-8.451-7.838-10.564-12.877s-.934-10.438-2.4-15.477a20.831,20.831,0,0,0-7.8-10.918c-4.429-3.2-9.955-5.039-13.164-9.6-8.207-11.677,12.758-14.077,19.828-15.477,9.02-1.84,20.356-4.839,25.151-13.237,2.763-4.879,3.332-8.518-1.463-12-5.282-3.919-12.027-6.2-17.634-9.718-8.451-5.319-14.627-13.517-20.966-20.955-3.169-3.8-7.232-7.4-8.695-12.157a17.488,17.488,0,0,1,2.072-14.917c5.12-8.158,17.878-12,26.735-14.677,6.217-1.88,8.939-3.8,14.14-7.678,3.7-2.639,7.314-4.119,11.864-3.959,6.095.2,11.58,1.92,17.756,1.32a48.072,48.072,0,0,0,13-3.519c5-2.04,10.848-3.8,15.236-6.958,4.266-3,7.557-6.758,11.092-10.518A229.988,229.988,0,0,0,1167.5,4.255a122.41,122.41,0,0,1,20.031-22.515" transform="translate(162.26 46.574)"></path><path class="e" d="M479.186-70.4c-2.6,7.4-8.654,13.4-13.449,19.436-4.022,5.039-6.582,12.8-7.842,19.036-1.869,9.278-1.585,17.916-1.341,27.314.041,3.639.488,7.118-.488,10.6-1.706,5.8-5.445,3.2-9.508.92a35.282,35.282,0,0,1-15.887-17.236c-3.7-8.358-2.6-14.957-1.463-23.995a47.951,47.951,0,0,0-1.91-20.755M1021.77,358.5c2.194-3.2,4.795-6.319,6.623-9.718,2.357-4.2,3.7-8.8,5.891-13.037,1.422-2.719,3.25-4,5.648-6.119,6.623-5.8,15.237-11.357,19.747-19.116,3.494-6,3.982-13.717,3.088-20.475-1.016-8.078-3.982-15.876-4.51-23.955s-.528-16.436-2.072-24.435c-.935-4.919-2.4-10.078-2.763-15.117-.284-3.8.487-8,.772-11.877.65-8.158-5.12-15.077-13.49-16.716-8.37-1.68-7.517,15.6-8.289,20.475-1.26,8.358-5.4,14.637-8.776,22.435-2.885,6.639-3.576,15.317-8.979,20.675-5.485,5.4-16.537,2.239-22.428-.92-8.7-4.719,2.6-14.477,4.51-20.355,2.682-8.078-1.016-15.557-8.532-19.516a37.162,37.162,0,0,0-10.564-3.679c-4.469-.96-10.442-1.16-14.586-3.119-3.738-1.72-4.429-5.4-6.867-8.318-2.113-2.36-4.51-3.119-7.639-3.319-9.426-.64-19.1-.04-28.523-1.16-3.372-.44-7.517-2.559-4.672-6,2.6-3.119,8.207-4,11.742-5.639,7.354-3.319,12.433-8.878,17.959-14.477,5.566-5.559,12.8-11.357,15.236-19.116,2.357-7.6-.934-17.2-2.682-24.594-2.072-8.518-4.916-14.4-14.1-16.716-7.314-1.84-16.049,1.6-22.1-3.919-5.891-5.359-7.151-14.4-14.871-17.836-6.623-3-16.049-3.8-23.2-4.119-9.345-.32-18.406,3.039-27.385,5.359-7.557,1.92-15.074,3.039-22.794,4.359-7.964,1.24-15.643,3.439-23.363,0-3.169-1.4-8.939-4.239-6.3-8.358,1.95-3.119,7.029-5.8,9.873-7.878,6.216-4.679,13.449-11.158,8.857-19.516a32.943,32.943,0,0,0-6.42-7.4c-3.088-2.839-9.345-6.6-11.336-10.4-3.576-6.758,12.514-4.719,16.009-4,15.805,3.2,35.064,9.8,51.032,4.4,7.476-2.519,14.14-6.6,21.656-9,5.12-1.6,21.413-4.239,22.469-11.2.975-6.439-7.029-12.4-11.824-15.636-7.72-5.359-15.2-11.477-23.363-16.2-3.494-2.04-7.395-3.439-11.092-5.079-2.682-1.24-8.817-2.8-10.239-5.879-3.332-7.438,18.934-4.359,21.494-4.239,14.1.28,46.929-12.477,57.7-21.915m312.167-14.6c-6.216,2.639-12.921,4.919-18.731,8.4-5.485,3.2-14.221,7.438-8.208,14.077,8.7,9.558,24.216,14,36.324,17.6,6.623,1.92,15.237,3.159,21.087,7.118,7.354,4.919,1.463,12.277-1.585,18.076-2.844,5.359-5.607,10.718-11.255,13.6-6.42,3.279-14.465,3.2-21.494,4.119-14.79,1.92-29.661,1.68-44.531,1.92-5.282.16-10.4.04-15.643-.2-7.314-.44-15.4-1.88-22.713-.64-16.009,2.8-9.629,22.715-16.456,33.233-5.445,8.358-26.735,21.755-13.652,31.993,10.6,8.318,27.182,5.4,39.818,9.118a176.576,176.576,0,0,1,21.412,7.6c1.95.92,5.891,2.479,5.485,5.239-.447,3.2-5.4,7.6-7.07,10.438-3.169,5.319-4.672,11.8-8.207,16.716-4.022,5.719-12.189,7.358-12.474,15.117-.2,7.038,3.494,13.517,3.819,20.475.366,6.439-4.022,11.158-8.776,14.837-5.647,4.4-11.255,8.8-17.187,12.8-6.217,4.119-12.067,7.4-16.212,13.757a93.915,93.915,0,0,0-14.3,39.391c-.691,6.2.284,13.877,4.957,18.6,4.469,4.559,12.6,2.319,17.878.84,6.42-1.84,13.246-4.6,19.869-5.039,7.314-.48,14.79-.68,21.981.48.691.68-11.336,5.239-11.539,5.239-5.81,2.08-11.743,3.919-17.471,6.2-8.126,3.2-16.943,7.438-23.81,12.917a32.8,32.8,0,0,0-12.23,22.675c-.325,5.4.691,10.518,1.422,15.876.65,4.719-.162,7.238-4.063,9.918M1580.2,207.977c-8.776,6-17.431,14.477-28.807,13.877-5.932-.32-11.824-2.959-17.674-3.119a60.274,60.274,0,0,0-14.911,1.68c-9.955,2.639-19.665,8.318-28.645,13.2-5.81,3.159-11.539,6.519-17.471,9.478-2.763,1.32-9.954,5.519-11.336,2.04-1.341-3.479,4.51-8.078,6.542-10.4l14.871-16.556c5.445-6.039,12.921-17.036,3.007-22.995-3.819-2.319-29.9-6.039-22.1-14.837,3.535-3.959,10.076-2.639,14.627-2.559,5.445.16,10.6.52,15.968-.44,11.011-2.04,20.519-7.518,30.27-12.757,1.869-.96,12.311-5.159,10.6-8.638-1.584-3.119-12.189-.52-14.79-.16-10.564,1.68-19.259-.32-28.076-6.519-4.754-3.319-8.979-8.078-14.424-10.038-4.063-1.44-8.451-.76-12.514.48-11.336,3.519-22.266,9.438-33.8,12.117-5.607,1.32-10.117-.48-12.352-6.119-1.869-4.519,1.909-7.6,5.16-10.238,3.7-3,7.313-6.439,11.5-8.8,6.135-3.479,12.6-6.519,18.893-9.8,3.494-1.84,8.329-3.679,10.6-7.038,3.25-4.679-2.885-7.118-6.582-8.4-10.564-3.679-23.119-6.319-31.9-13.757-4.063-3.479-5.892-8.318-8.045-13.037-2.194-4.719-6.379-7.678-9.142-12.037-3.576-5.8,7.029-5.4,10.4-5.8,6.054-.64,10.076-2.24,15.805-4.4,4.916-1.88,10.2-1.56,15.155-3.039,4.632-1.44,8.492-5.079,13.124-6.519,5.4-1.72,10.076-.92,15.643-.44,5.729.52,11.336.36,16.537,2.719,10.117,4.679,17.959,13.6,29.417,15.6,4.185.76,9.914.04,14.139-.68,4.023-.68,11.7-2.319,14.587-5.519,3.25-3.639-1.26-9.8-3.088-13.2-2.438-4.6-4.591-10.278-8-14.237-4.063-4.719-9.467-6.319-15.033-9.038-4.469-2.24-7.517-5.079-10.889-8.638-4.023-4.2-7.558-7.438-7.029-13.437a28.571,28.571,0,0,1,5.648-14.077,32.667,32.667,0,0,1,11.986-8.878c5.485-2.559,7.842-3.479,13.9-3.479,10.686,0,22.916-1.44,32.83,3.439M1119.569-63.082c-2.763,3.839-6.867,7.118-10.117,10.518a25.613,25.613,0,0,1-9.264,6.639c-5,1.92-5.648-1.12-5.485-5.719s1.26-9.318,1.91-13.917M600.387,363.3c4.673-7.118,2.6-16.276,5.729-24.115,3.9-9.758,9.589-19.676,14.708-28.794,4.429-7.718,10.4-12.957,19.5-14.4a38.562,38.562,0,0,1,12.677.28c4.063.68,10.442,2.839,14.424.48,3.738-2.159,6.054-9.278,7.964-12.717,2.113-3.8,3.982-6.918,7.517-9.758,8.492-6.759,17.349-3.8,26.41-.44a216.17,216.17,0,0,0,25.15,8.038c10.077,2.479,20.234,5.959,30.433,7.518,3.25.48,11.011,1.92,11.336-3.039.2-3.479-2.194-9.758-3.7-13.037-4.51-9.8-12.8-14.157-21.656-19.676a64.061,64.061,0,0,1-9.629-7.838c-3.372-3.2-6.867-8.318-12.23-7.838-4.469.44-8.329,5.159-12.8,5.959-3.169.52-7.517-1-10.361-2.559a255.791,255.791,0,0,0-29.173-13.917c-8.776-3.639-16.5-9.918-24.378-15.077-7.354-4.839-16.456-6.678-23.85-11.357-8.654-5.519-8.532-14.837-5-23.475,3.088-7.518,10.361-14.477,10.28-22.835-.041-10.758-2.438-22.515-4.185-33.153-1.422-9-3.86-17.836-5.891-26.674-1.869-8.158-5.241-17.236-2.682-25.514,1.625-5.319,3.7-7.918,7.151-12.4,3.332-4.239,5.81-7.038,7.029-12.277.934-3.759-.447-6.918-1.95-10.4l-8.126-17.6c-3.819-8.318-5-17.676-7.07-26.474-.772-3.439-1.26-8.4-3.819-11.2-3.25-3.519-7.964.76-10.6,3.319-6.582,6.439-8.492,14.077-7.517,23.155.975,9.038,4.307,17.236,3.332,26.314-1.178,10.278-3.535,20.475-4.754,30.793-.935,8.358-.2,17.156-2.275,25.274-2.438,9.558-5.4,19.076-7.354,28.714-2.072,10.278-3.7,19.876-6.907,29.793-1.422,4.239-2.844,7.518-1.91,12.037.772,3.919,2.885,7.518,4.632,11.078l8.532,17.916c1.707,3.519,3.494,6.759,3.9,10.678.975,8.718-5,18.4-11.742,23.635a58.189,58.189,0,0,1-12.067,6.958c-4.469,2.08-9.264,3.2-11.986,7.438-4.591,7.4-1.91,17.6-2.357,25.794-.487,9.8-2.56,18.956,1.91,28.234,3.535,7.4,15.237,13.517,14.3,22.435-.528,4.879-4.794,9.038-7.232,13.037-2.072,3.279-6.785,21.875-7.517,25.634m721.767-157.645c3.982-.96,9.426-1.24,12.961-3.2,3.7-2.04,5.932-6.2,7.029-10.038,2.357-8.158,2.4-19.236-5.892-24.115-7.151-4.239-18.243,6.439-23.525,10.6-5.891,4.719-12.961,11.317-13.449,19.2-.2,2.959-.975,5.159,1.707,6.958,1.788,1.24,4.469,1.6,6.785,1.76,4.672.2,9.711-.76,14.383-1.12" transform="translate(-170.801 77.478)"></path><path class="e" d="M2440.516,507.091c8.167-1.32,16.131-2.8,24.338-3.479,8.33-.76,19.584.48,24.947-7.038,2.276-3.119,2.194-6.479,2.763-10.278.772-5.2,1.869-10.438,2.357-15.756a39.134,39.134,0,0,0-3.819-20.755,154.2,154.2,0,0,0-12.473-22.115c-2.885-4.2-5.444-4.879-10.2-2.319-3.332,1.76-5.729,4.839-8.045,7.678-5.729,6.918-10.93,13.4-17.756,19.276-7.07,6.119-14.14,11.517-19.1,19.516-3.981,6.439-9.751,17.8-7.232,25.434,3.373,10.2,15.643,9.478,24.3,9.918" transform="translate(-1351.288 -219.116)"></path><path class="e" d="M906.083,226.237l23.2-2.24c6.217-.64,14.586.16,19.584-4.359,4.794-4.359,4.266-12,4.794-17.836.691-7.6,1.869-15.157,1.706-22.755-.2-14.237-11.092-26.034-13.977-39.711-1.585-7.4.162-15.277.853-22.715.528-6.758,2.519-12.6,4.469-19.116,1.706-5.519,5.607-14.677.528-19.756-4.185-4.239-13.936-.96-18.609.64-4.469,1.56-17.268,5.079-15.846,11.8.69,3.159,4.063,6.918,5.81,9.718s3.494,5.959,4.022,9.2c2.56,14.8-11.173,28.034-19.056,38.791-3.7,5.079-6.623,8.8-11.377,12.8-5.891,5.079-11.864,9.958-17.024,15.756-4.022,4.559-6.907,10.678-9.345,16.276-2.682,6.319-6.623,13.717-5.485,20.755,2.357,14.557,23.566,16.2,35.105,14.837,3.7-.56,7.232-1.44,10.645-2.08M997.34-52.5c-2.6,1.4-6.623,3.639-7.313,6.8-.528,2.839,1.26,7.118,2.682,9.758,2.357,4.2,4.795,9.718,8,13.277,3.535,4,7.72,4.239,12.758,5.039m0,.04c10.2-2.16,14.79-6.519,13.652-17.036-.447-4.119-1.463-8.2-2.275-12.277M-182.946,23.283c4.51-1.32,9.142-3.319,13.936-3.279,9.711.28,13.124,8.8,16.821,16.2,3.7,7.238,8.329,15.477,5.932,23.915-1.016,3.759-4.063,7.678-5.932,11.157-2.4,4.559-5.12,9-7.314,13.677-3.332,7.038-5.729,14.837-2.682,22.355,3.007,7.4,11.58,13.237,12.027,21.315.488,9.758-8.939,14.157-16.13,19.076-2.885,1.92-6.7,4.239-7.395,8.078-.488,2.839,1.585,7.038,3.047,9.478,4.673,7.718,11.052,15,14.586,23.275,1.625,3.839,4.063,7.718,3.047,12.037-1.178,4.559-6.217,6.519-9.264,9.758-4.957,5.319-6.785,13.437-5.445,20.435,1.788,9.118,4.185,17.636,5.119,26.914.366,3.439.284,6.918,1.422,10.038,1.788,5.239,4.632,10.278,6.867,15.317,3.047,6.8,6.907,14.317,5.4,21.955-.772,3.839-2.6,7.878-5.973,10.118-4.063,2.8-10.117,3.319-14.627,5.359-3.7,1.68-6.785,4.359-10.117,6.639-3.047,2.08-6.623,5.8-10.686,5.639m354.382,28.914c-3.494-2.639-19.1-18.8-26.938-19.676-4.266.68-6.542,3.479-9.426,6.319-4.51,4.559-13.9,16.756-20.6,8.838-2.885-3.479-4.673-8.2-6.7-12.157-1.422-2.719-3.982-7.4-7.151-8.318-3.86-1.12-6.42,3.2-8.492,5.559-3.576,4.239-7.029,8.718-10.767,12.8-2.113,2.319-4.957,5.719-8.289,6-4.591.36-6.623-5.8-10.076-7.878-3.535-2.239-7.557,1.08-11.173,2.319-3.7,1.32-7.842,1.92-11.539.68-9.914-3.319-9.183-13.077-9.183-21.435.041-8.878-3.819-15.157-13.449-16.436-4.185-.52-8.532-.04-12.758.04-3.819.04-8.817,1.12-12.311-.2-8.451-3.119-6.135-13.437-1.422-18.6,6.42-6.958,13.936-13.557,19.056-21.555,4.957-7.718,5.81-16.076,3.535-24.874-2.113-8.4-9.02-14.077-12.474-21.8-3.86-8.878,5.81-15.756,10.6-22.035s9.873-14.557,7.517-22.755c-2.4-8.358-13.489-11.837-20.356-15.477a68.486,68.486,0,0,1-20.234-15.636c-5.241-6-10.076-12.4-7.232-20.475,1.341-3.959,4.022-9,3.576-13.4-.325-3.639-2.885-6.319-5.485-8.8-7.232-6.679-14.383-11.677-11.255-22.435,2.4-8.358,8.654-13.917,5.323-22.995C-46.67,59.115-53.536,50.917-58.534,43.8c-4.957-6.958-11.092-11.837-18.04-16.756-6.542-4.679-11.58-8.838-14.79-16.2-6.867-15.6-17.471-33.872-15.887-51.708m346.7,1.56c-3.982,6.519-7.964,12.557-12.514,18.636C222.225-14.389,215.155-7.27,214.18.888c-1.138,9.478,2.113,18.876,4.063,28.034,1.788,8.078,2.4,15.756.691,23.915-1.625,7.718-5.485,15.077-6.907,22.755-1.625,8.878-.853,18.316-2.113,27.314-1.341,9.318-3.819,18.636-5.729,27.914-1.585,7.6-3.047,14.157-7.639,20.635-5.241,7.4-8.289,13.277-2.682,21.755,7.476,11.2,26.207,34.152,12.433,46.709-11.173,10.238-37.99,2.04-36.161,23.755.691,8.638,2.194,17.4,1.707,26.034-.488,8.8-1.747,18.156-.041,26.914a40.706,40.706,0,0,0,3.9,11.317c2.113,3.919,5.607,7.438,7.232,11.557,1.463,3.759.975,6.119.284,9.8l-6.135,32.273m81.343,5.839c.284-4.719-.041-9.118,1.178-13.677a62.75,62.75,0,0,1,4.794-11.317c3.494-6.759,7.557-17.836,16.984-15.956,8.167,1.6,14.871,9.478,21.778,13.517,7.232,4.2,14.912,6.958,22.875,9.6,8.451,2.839,17.918,7.238,27.1,6.319,10.117-.96,5.607-11.877,1.341-16.556-6.217-6.918-13.652-13.877-17.512-22.355-1.26-2.8-2.844-8.078-1.26-11.077,2.113-3.959,7.517-3.759,11.336-3.759A109.6,109.6,0,0,1,396.735,313.7c6.907,3.439,16.009,9.6,24.053,6.519,3.819-1.44,7.151-4.4,10.28-6.958,2.844-2.359,7.72-5.719,8.451-9.558.691-3.8-3.738-6.6-6.095-8.8-3.535-3.279-7.8-6.319-10.889-9.958-4.957-5.8-6.867-14.4-13.286-18.8-7.07-4.879-16.049-9.358-20.681-16.756-4.429-6.958-5.445-15.8-9.873-22.595-3.575-5.559-13.449-14.637-20.762-12.117-8.207,2.839-10.2,14-19.422,15.557-7.72,1.32-16.821-2.04-23.647-5.559-8.207-4.359-15.846-9.2-23.688-14.2-5.81-3.679-16.212-8.318-16.984-15.876-.853-8.638,11.864-12.037,17.431-16.276a16.674,16.674,0,0,0,4.063-22.435c-2.113-3.639-6.135-5.639-9.508-7.918a20.87,20.87,0,0,1-7.8-10.078c-3.088-8.078-4.185-17.916-5.81-26.434-1.463-7.438-3.332-15.556-3.25-23.155,0-4.679.934-9.118,4.266-12.8,2.6-2.959,7.557-5.079,10.889-7.238s7.72-4.119,9.589-7.718c1.463-3-.528-7.838-2.275-10.438-4.51-7.038-12.23-11.837-16.456-19.236C270.86,23,267.122,16.044,265.619,6.967c-1.463-9.118-1.91-17.2,2.844-25.394,4.916-8.518,10.28-14,20.072-16.556,8-2.08,16.821.2,24.622-2.319,3.982-1.32,7.557-3.439,9.426-7.118" transform="translate(195.863 66.737)"></path><path class="e" d="M396.778-37.922c-4.51,2.719-8.7,6.279-13,9.438s-9.345,6-11.742,11c-1.91,4-.163,8.4,2.357,11.837,4.429,5.959,9.345,11.4,13.977,17.156,2.763,3.319,6.379,6.918,7.72,11.2,4.022,13.037-15.724,9.278-23.322,10.678-13.246,2.479-15.358,12.6-16.984,24.115-1.585,11.157-2.072,21.755.447,32.793,2.113,9.478,10.686,19.676,8.329,29.513-1.178,5.159-4.063,9.8-5.241,15-1.341,6.279-1.585,13.277-3.7,19.356-1.706,4.879-5.485,9.118-7.8,13.757-2.194,4.559-2.275,8.318-2.4,13.237a139.333,139.333,0,0,1-.65,15.956c-.65,5.319-1.422,10.438-.853,15.8.975,9.118,5.607,25.114-3.088,31.993-4.022,3.2-10.848,4-14.708.48-4.022-3.679-5.81-9.918-10.93-12.037-4.469-1.84-12.027,1.44-14.14-3.759-2.194-5.359,2.113-12.557,2.763-17.676.691-5.559-.528-8.838-3.047-13.557-2.4-4.519-5.4-8.638-5.892-13.717-1.138-11.837-1.747-22.355-7.395-32.993A97.23,97.23,0,0,0,277.852,137c-3.494-4.439-5.485-7.918-2.6-13.517,4.266-8.318,16.455-17.676,8.776-27.714-5.445-7.118-22.428-11.877-15.562-22.955,2.113-3.439,8.451-10.4,6.867-15.077-1.422-4.119-7.639-6.279-11.092-7.838-10.4-4.719-22.591-8.518-29.782-17.676-3.7-4.719-4.794-10.718-7.964-15.756-2.6-4.239-7.964-7.438-11.742-10.678-4.307-3.639-7.8-6.039-9.914-11.357-1.91-4.839,1.707-6.958,6.3-8.078,11.58-2.719,25.191-2.239,36.161-7.278,4.429-2.04,8.492-5.4,8.532-10.438.041-6.439-2.6-11.078-5.607-16.436M796.3,379.984c4.307-4.359,9.751-7.918,13.652-12.6,7.639-9.118,5.323-19.915,3.332-30.473-1.91-10.038-5.485-18.636-14.911-24.115-5.119-2.959-10.93-5.4-15.359-9.318-4.51-4-5.485-8.2-2.072-13.4,4.266-6.439,20.8-16.356,10.117-24.314-9.873-7.278-21.087-9.918-32.992-7.118-9.751,2.319-19.747,11.2-30.148,7.438-5.4-1.92-8.979-7.038-13.733-10.038-4.063-2.559-9.345-3.319-13.733-5.4-6.867-3.2-21.778-15.6-17.431-24.315,2.113-4.2,7.842-6.479,11.7-8.558,6.095-3.279,12.474-6.279,18.406-9.918,9.182-5.639,16.943-13.717,25.679-20.035,4.51-3.2,9.426-6,14.1-9,4.307-2.719,9.02-4.719,11.052-9.718,3.576-9.278-10.2-20.675-17.268-24.714-20.153-11.357-44.369-3.039-64.481,3.319-6.095,1.92-12.311,4.6-18.609,6-5.12,1.12-7.354-1.16-9.264-5.559-2.113-5.039-4.429-10.278-9.955-12.477-5.12-2.04-11.377-1.68-16.7-1.12-11.173,1.12-21.087,6.2-31.2,10.678-2.885,1.24-10.442,6.439-13.774,4.359-4.185-2.639-.528-9.918,1.341-13.037,3.576-5.879,8.329-11.317,11.58-17.4,2.56-4.839,3.332-8.518,1.95-13.717-1.341-5.079-7.232-7.518-8.817-12.277-1.707-4.879,7.232-6.279,10.564-6.958,6.582-1.44,13.408-2.359,20.031-3.479,3.372-.64,10.767-.68,11.539-5.159.691-3.679-4.51-7.238-7.314-9.2L606.393,56.217c-9.183-6.519-17.918-13.037-26.532-20.275a99.717,99.717,0,0,1-10.767-10.278c-2.4-2.839-10.117-9.038-7.232-13.677,4.794-7.838,26.247.44,32.139,1.76,10.6,2.319,20.681,3.959,31.408,5.319,11.011,1.4,22.794,3.919,33.927,3.2,2.885-.2,13.489-.76,13.124-5.039-.2-1.72-2.885-3.479-4.063-4.439l-8.979-7.518c-6.542-5.4-49.042-39.991-36.852-47.789,3.7-2.359,11.864-1.32,16.049-.96,5.607.44,10.849,1.92,16.212,3.439,6.054,1.68,10.767,2.839,16.984,3.039m487.083-1.8c-3.169,3.279-8.532,8.4-3.169,12,4.632,3.039,11.539,4.2,16.7,5.959,9.954,3.319,20.315,7.038,23.4,17.836,2.682,9.318.853,22.235-6.785,28.714-4.063,3.519-8.979,6.8-12.6,10.918-4.429,4.919-7.395,11.078-11.742,16.2-14.1,16.756-44.735,12.557-64.115,12.917-9.914.16-20.315,0-29.986,1.6-5.4.92-10.767,2.08-14.871,5.519-4.429,3.679-4.754,9.478-.934,13.877,6.867,8.038,22.591,9.558,32.058,12.037,9.467,2.519,19.34,5.559,28.035,9.958,4.794,2.479,11.092,6.039,10.28,12.317-.65,4.679-5.16,9.318-7.72,12.957-3.088,4.4-5.891,9.318-9.914,13.037-4.429,4.119-9.183,7.2-14.139,10.518-9.264,6.2-12.068,16.036-15.724,25.994-3.819,10.6-7.232,21.635-14.465,30.473-6.7,8.078-15.846,13.6-21.412,22.755-2.763,4.6-5.729,9.8-.853,13.6,4.754,3.679,10.686.96,15.806-.44,5.4-1.44,11.092-3.119,16.78-2.519,4.916.48,9.183,3,13.408,5.4,4.672,2.8,8.207,5.159,13.449,6.319,5.648,1.24,12.758,1.44,17.146,5.519,6.42,5.959,10.767,20.675,4.266,27.794-7.029,7.6-20.966,9.718-30.432,12.4-9.914,2.839-19.991,5.4-29.254,9.918-10.767,5.159-22.956,10.118-31.367,18.8-16.5,17.236,37.787,25.834,45.994,29.993,4.429,2.239,9.142,6.479,7.151,11.837-1.585,4.119-7.354,5.079-11.052,6-11.661,2.8-24.216,4.679-35.024,10.118m202.1-37.232c-.2-10.438-2.682-25.034-15.887-25.714-6.216-.32-11.336.96-17.431,2.359-4.916,1.12-10.6,3.2-14.424-1.4-3.372-4.119-5.485-10.4-8-15.077-2.072-3.8-5.607-8.358-6.42-12.6-1.178-6,.65-14,.935-20.155.163-3.479-.691-10.518,1.95-13.4,3.575-3.8,12.8.16,17.187.36,5.4.28,10.6-2.16,16.009-2.4,10.442-.52,19.056,8.358,29.782,8.318,11.7-.04,22.225-5.559,29.661-14.357,3.007-3.479,6.42-8.638,3.576-13.2-1.138-1.84-4.266-3.519-5.891-4.879-2.763-2.32-5.81-4.439-8.329-6.958-7.314-6.918-10.889-16.076-19.868-21.315-4.916-2.839-11.824-4.719-14.3-10.038-2.194-4.6,0-9.958-.162-14.957-.284-10.718-8.817-20.036-11.864-30.113-1.422-4.719-2.072-11.157-.325-15.8,1.91-5.159,6.623-6.8,11.539-8.358s11.336-2.719,15.521-5.839c4.632-3.479,1.341-9-1.625-12.6-3.982-4.839-9.955-8.8-14.708-12.957-3.86-3.439-5.973-7.678-7.964-12.4-3.982-10.038-3.251-21.115-.65-31.393,2.682-10.6,9.183-16.2,18.121-21.915,9.63-6.2,18.771-12.317,29.742-15.8,4.632-1.44,9.345-3.479,14.14-4.119,7.07-.92,14.424-.96,21.615-1.4,8.939-.52,19.381-6.2,26.857-10.718,10.686-6.479,18.122-14.237,24.988-24.435,2.275-3.439,6.582-9,6.095-13.2-.691-5.8-8.817-3.679-12.677-3.439-11.173.84-23.566,3-33.8-2.519m130.953,321.448c-5.891.92-11.377,3.919-17.187,5.039-12.067,2.36-20.681-4.359-32.017-6.519-10.361-2.04-22.1,1.08-31.9,4.2-10.117,3.2-21.169,9.118-22.875,20.6-1.706,11.8,6.054,23.675,10.442,34.152,1.463,3.479,4.022,8.8.691,12.037-2.6,2.639-7.557,3.519-10.889,4.6-12.677,3.959-26.126,7.2-38.437,12.037" transform="translate(-38.418 63.916)"></path><path class="e" d="M878.34-47.563c-4.429,1.84-16.78,5.239-15.805,11.637,1.1,6.8,12.311,10.718,17.878,13.437,7.639,3.679,15.155,7.358,23.038,10.518L920.6-4.933c3.007,1.16,6.217,2.08,7.964,5.039,4.469,7.878-5.648,16.756-12.189,19.236-16.13,6.119-35.918,4.879-52.9,5.079-7.395.04-15.034.16-22.428-.16-8.776-.32-19.1-3.119-27.548-.48-9.914,3.159-10.848,10.718-11.661,19.876-.772,8.518-2.438,15.077-8.329,21.6-3.332,3.759-7.517,7.038-11.173,10.438-2.844,2.639-6.3,5.159-6.907,9.318-1.585,9.438,6.42,15.556,13.977,19.2,15.318,7.238,33.439,2.08,47.9,12.117,3.535,2.519,5.892,4.679,4.754,9.438a25.638,25.638,0,0,1-6.217,11.157c-3.25,3.039-7.557,3.959-11.58,5.519-4.51,1.84-5.444,4-5.4,8.838.041,8.358,5.241,16.276,5.729,24.594.488,8.878-6.42,13.2-12.758,18.076-7.313,5.559-16.008,10.678-21.453,18.116-4.795,6.518-7.395,15-10.442,22.515a245.635,245.635,0,0,0-8.939,25.994c-2.357,8.718-1.463,16.556-.284,25.354.447,3,.691,6.319-.691,9.038-1.91,3.679-5.973,7.238-8.695,10.4-5.485,6.638-10.767,14.837-17.471,20.355-2.113,1.76-7.964,6.958-11.092,4.919-2.885-1.84.488-9.958.975-12.4,1.463-7.838.65-16.356-.853-24.115-1.625-8.318-4.591-16.2-5.444-24.594-.935-9.358-.041-18.8.2-28.274.284-8.318,2.357-16.076,3.047-24.395s-2.56-13.717-8.695-18.956c-7.395-6.279-13.936-11.557-19.666-19.356-2.194-3-4.673-8.078-8.126-9.918-4.063-2.08-4.957,2.24-6.216,5.359-3.251,7.878-7.354,16.2-8.208,24.754s3.007,19.036-1.138,27.114c-5.4,10.6-13.652-5.519-16.984-9.918-5.282-7.038-12.514-12.557-19.056-18.436-6.3-5.719-14.221-4.879-21.778-7.678-9.914-3.679,3.21-15.956,5.729-20.515,4.429-7.878,1.585-16.876.488-25.274-.975-7.678,1.463-15.876.162-23.435-1.463-8.2-12.311-11.157-19.1-13.717-4.022-1.56-8.492-2.559-11.864-5.2-3.738-2.839-4.469-8.078-7.964-11-5.445-4.679-16.049-4.439-22.713-5.159-8.817-.96-18.731-3.439-27.588-2.519-9.467.96-18.609,4-27.751,6.479-4.469,1.16-18.731,5.8-17.959-2.559.447-4.119,3.21-8.158,3.9-12.277.691-3.759-.65-9.8,3.372-12.117,3.576-2.04,9.914-.76,13.733-.52a75.962,75.962,0,0,0,12.8-.04c9.142-1.24,17.878-6.958,26.126-10.758,7.8-3.639,16.781-4.679,25.029-6.519,6.054-1.4,18.568-3,15.724-11.637C590.592,25.94,584.985,18.7,579.3,13.983c-3.7-3.039-21.453-11.677-18.365-18.156,1.422-2.959,6.135-3.639,9.142-4.239,5.648-1.16,11.377-2.16,16.984-3.519,3.372-.84,7.354-2.08,9.711-4.6,2.519-2.719,3.21-6.958,3.7-10.518,1.26-9.358,2.56-17.6-.528-26.794M1240.4,152.112c-7.557.36-15.155-5.559-22.428-7.6-8.939-2.4-16.293-1.68-25.272-.52-8,.96-18.406,3.959-26.41,1.12-3.535-1.24-6.623-4.239-9.508-6.6l-7.313-5.839c-1.381-1-4.307-2.639-5.16-4.119-3.535-6.439,14.383-10.278,9.142-18.636-3.535-5.639-12.474-8.838-18.731-10.678-5.4-1.56-10.848-2.839-16.293-4.239-4.022-1-9.02-1.56-12.8-3.439-11.824-5.719,2.113-12.037,7.232-15.956,5.932-4.679,11.5-14.077,19.259-15.636,4.063-.84,8.695.52,12.961,1.24,3.7.52,8.207.52,11.7,1.88,4.754,1.84,9.264,5.319,13.652,7.838,3.494,1.92,7.151,2.959,11.011,4.2,6.866,2.239,14.586,1.6,21.737,1.92l34.943,1.6a45.33,45.33,0,0,0,7.72-.28c5.648-.68,7.354-1.6,5.932-7.678-1.869-7.718-5.648-16.516-12.921-20.755-8-4.679-16.13-5.079-20.8-13.877-4.063-7.718-3.088-14.357-12.189-18.316-5.973-2.639-21.494-5.2-17.512-15.4,1.341-3.439,7.557-5.039,10.442-6.439,3.9-1.88,7.8-4.2,11.824-5.639,8.7-3.279,16.13-.32,23.078,4.839m6.7,198.315c-7.151,3.959-12.8,11.317-21.29,12.557-9.142,1.4-17.756.96-26.735,3.319-5.16,1.4-21.006,8.038-25.313,2.719-1.91-2.359-2.438-7.878-2.4-11a10.854,10.854,0,0,1,5.607-9.358c3.331-2.08,8.289-3.039,11.986-4.4l16.659-6.119c6.867-2.519,12.758-7.038,18.934-10.918l15.4-9.758c2.072-1.32,3.982-2.959,6.3-3.479M-136.863-61c-1.422,6.958-7.8,13.037-10.117,19.876-3.819,10.878,8.045,10.438,15.4,9.118M262.173,174.587c6.907-5.359,9.955-12.037,10.442-20.755.366-7.2.366-16.356-1.26-23.315-.691-2.959-3.007-8.4-6.785-8.078-3.088.36-4.916,4.559-5.891,7.038-1.706,4.359-2.682,9.118-3.982,13.6-1.341,4.679-3.332,9.478-4.063,14.2-1.138,6.279,3.088,18.8,11.539,17.356m-5.2,135.17c9.751-3.8,16.293-12.037,25.15-17.6,7.639-4.719,17.024-5.079,25.272-8.518,9.426-3.959,15.521-11.677,21.656-19.436,2.519-3.119,6.095-7.278,3.372-11.357-2.275-3.319-7.842-6.2-11.052-8.678-8.126-6.439-15.521-12.477-25.272-16.516-7.395-3.039-20.031-5.4-27.873-3.319-8.451,2.239-14.3,10.6-21.169,15.556-8.126,5.839-15.155,10.4-17.471,20.635A77.288,77.288,0,0,0,227.677,277a28.062,28.062,0,0,0,4.429,15.876c2.357,4,6.135,7.038,9.955,9.8,2.275,1.6,4.754,4,7.314,5.239,2.275,1.08,5.2,1.36,7.6,1.88" transform="translate(170.583 71.838)"></path><path class="e" d="M641.891-31.972c4.063-1.92,7.964-3.639,10.6-7.438,2.682-3.8,4.429-9.2,6.42-13.517,2.763-5.8,11.011-18.6,6.3-24.914-2.56-3.439-8.329-3-11.986-1.88-5.16,1.6-9.345,4.919-13.164,8.638-7.029,6.8-8.776,16.2-11.174,25.114-.934,3.439-3.047,10.4-1.422,13.4,2.275,4.2,10.848,1.16,14.383.64M-69.027,331.946c-4.063-8-9.264-16.036-12.514-24.395-3.372-8.8,1.341-17.476,4.429-25.554,1.869-4.839,3.25-10.038,5.485-14.637,1.91-3.959,4.754-7.718,7.151-11.477,2.275-3.519,5-7.718,3.7-12.117-1.016-3.479-4.51-7.678-8.532-7.278-7.557.68-13.489,16.756-16.212,22.435-3.535,7.358-5.891,15.4-5.932,23.515-.041,8.558,1.95,16.716.691,25.234-1.422,9.278-3.494,18.6-4.185,27.914M-169.467-3.659c12.758-2.559,20.6,7.438,24.7,14.157s9.426,15.077,10.889,22.995c1.706,9-3.169,15.956-7.354,23.435-4.185,7.438-9.183,15.277-10.4,23.955-1.178,8.4,6.582,16.436,11.011,22.995,5.16,7.718,6.3,14.157.935,22.355-4.185,6.319-13.611,10.838-14.79,18.636-1.138,7.438,6.095,16.436,9.63,22.555,3.576,6.279,9.345,14.357,7.72,21.875-1.016,5.159-3.372,6.2-7.557,9.478-3.007,2.359-7.029,4.6-8.654,8.2-3.819,8.358,1.625,16.4,3.047,24.435,1.178,6.758-1.341,14.077,1.1,20.635,5.81,15.8,16.659,32.913,8.167,49.909-5.119,10.2-13.286,6.8-22.1,11.2-7.314,3.639-11.336,12.957-20.072,13.917M20.117,346.183c-5.81-7.2-3.332-17.036-2.275-25.354,1.138-9.038-5.81-12.277-13.936-11.4-8,.84-18.04,3.759-24.053-3.279-5.607-6.6-5.16-16.356-.284-23.035C-10.8,270.04,7.928,260.4,5.774,241.846c-1.016-8.518-7.395-15.4-12.758-21.635-2.438-3-6.135-6.279-6.582-10.4-.325-3.479,1.869-5.879,4.022-8.318,6.217-6.479,15.4-13.077,17.756-22.235,2.275-8.878-5.648-13.277-12.189-16.916-6.7-3.759-14.424-7.238-19.747-12.877-5.81-6.2-13.611-13.757-16.293-21.875-1.463-4.6-.488-7.6.488-12.4.691-3.519,2.113-7.918.65-11.477C-40.5,99.958-45.258,96-47.859,92.8c-2.682-3.279-4.754-6.039-5.729-10.4-1.706-7.718,4.429-14.917,6.095-22.115,1.869-7.838-3.332-15.8-7.842-21.8-5.119-6.8-9.873-13.077-16.537-18.436S-87.88,10.5-92.837,3.3c-4.591-6.678-6.095-15.876-8.451-23.435-2.478-8.078-5.038-15.836-6.663-24.155m358.771-9.958a164.24,164.24,0,0,1-11.661,18.116c-4.794,6.319-11.58,13.237-12.961,21.315-1.585,9.438,1.1,18.276,2.844,27.554,1.178,6.639,1.869,13.517.65,20.155-1.625,8.718-4.469,17.236-5.81,26.034-1.26,8.318-.853,16.756-2.275,25.074-1.341,8.038-4.022,15.756-5.607,23.675-1.585,8.2-2.072,16.916-5.485,24.634-3.535,8.038-8.289,13.237-4.916,22.275,5.445,14.677,23.322,31.713,14.586,48.269-3.7,7.038-10.442,10.518-17.918,12.717-8.532,2.519-18.04,3.479-19.1,14.157-.691,7.878,1.422,16.036,1.1,23.915-.447,8.838-2.275,17.6-.284,26.434,1.91,8.558,8.492,13.2,12.433,20.635,4.266,8.078-4.469,24.075-6.867,31.793m61.921,16.956a57.591,57.591,0,0,1,5.648-21.875c3.7-7.678,6.582-18.076,12.6-24.115,15.237-15.557,29.417,6.439,42.459,13.237,3.819,2.04,21.494,7.678,20.356-1.44-.528-4.4-4.51-9.918-6.379-13.877a41.623,41.623,0,0,1-3.169-11.637c-1.138-7.878,3.372-15.4,11.986-15.8,8.289-.44,17.634,3.279,25.516,5.039a459.1,459.1,0,0,1,50.3,14.477c6.623,2.359,18.121,1.6,17.349-7.718-.284-3.519-2.438-6.2-4.307-9.2l-9.426-15.4c-4.022-6.6-9.508-10.4-15.887-14.8-3.25-2.239-7.232-4.359-9.955-7.118-2.722-2.8-4.51-6.279-6.3-9.8-3.169-6.319-7.639-18.276-16.7-18.076-8.492.16-10.564,12.957-19.747,12.317-17.959-1.24-34.008-11.477-48.635-20.915-11.173-7.2-38.234-15.277-26.694-32.913,4.754-7.2,13.164-8.838,18.934-14.637,8.329-8.358-4.429-13.037-8.817-18.276-4.754-5.519-4.957-13.4-6.3-20.155l-6.785-35.272c-1.26-6.519-2.763-12.757-.528-19.236a22.631,22.631,0,0,1,5.485-9c3.21-3.279,8.167-6.039,10.686-9.8,5.119-7.518-4.429-17.4-8.207-23.435-3.982-6.279-7.232-12.757-8.817-20-2.113-9.558-4.429-18.116-3.738-27.874.488-7.4,5.241-15.157,10.2-20.635,5.485-6.039,12.6-8.838,20.519-9.918,7.639-1,19.584-.48,23.728-8.158" transform="translate(191.648 83.561)"></path><path class="e" d="M-151.987,51.4c10.117,5.559,1.463,18.156-2.113,24.794M227.83-20.464c-6.542,6.918-15.358,11.837-20.072,20.2-4.916,8.638,4.916,19.916,8.451,27.594,3.372,7.438,8.289,17.836,5.323,26.194-2.844,8.078-12.311,15.756-20.6,17.8-5.648,1.4-9.629-.28-15.358-1.24-4.185-.76-8.817-.92-11.864,2.719-2.885,3.439-2.357,9.318-1.26,13.237,1.422,5.079,3.982,8.558,6.907,12.957,2.682,4.119,5.241,8.4,7.517,12.8,2.357,4.359,5.241,7.4,8.532,11.078,6.867,7.518,8.776,16.556.447,24.155-3.372,3.039-8.492,5.079-11.5,8.558-3.169,3.679-2.844,8.158-1.463,12.557,2.885,9.6,9.751,17.956,12.677,27.594,1.341,4.239,1.95,8.358-1.625,11.4-3.738,3.159-8.817,4.919-12.8,7.838-7.72,5.4-15.521,12.557-15.887,22.355-.488,11,1.585,21.275,3.25,32.113,1.422,9.038-.772,18.076-.65,27.114.041,5.079,1.1,10.238,1.422,15.317.366,4.439.488,8.518-4.591,9.918-4.51,1.24-10.848.48-15.521.28-3.738-.16-7.151-.52-9.711-3.439-6.095-7.038-8.207-20.475-18.04-23.675-10.2-3.319-18.365,7.918-25.272,13.4-3.088,2.48-7.151,4.439-11.092,4.359-5.241-.16-10.686-2.959-15.521-4.519A87.217,87.217,0,0,0,56.612,304.9c-3.7-.68-11.377-.84-13.083-5.079-1.585-3.759,1.1-11.158,1.707-15.277a105.812,105.812,0,0,0,.975-10.758c.366-10.038,1.788-20.2-1.625-29.913-1.341-3.959-3.576-8.518-2.885-12.8.853-5.039,3.819-10.4,5.607-15.117,3.25-8.838,7.8-17.956,7.842-27.594.041-10.2-5-15.477-13.611-19.756-9.63-4.879-20.844-8.8-28.076-17.156-7.517-8.678,2.56-18.8,6.42-26.754,1.95-4,2.844-7.2-1.178-10.238-3.86-3-9.345-4-13.449-6.679-3.738-2.359-7.151-5.319-5.81-10.038C.907,92.59,6.473,88.631,8.22,83.592c1.341-3.8-.528-6.319-2.763-9.2L-6.894,58.6c-5.81-7.438-8.451-16.756-13.449-24.714-4.673-7.4-13.408-13.237-20.031-18.756A97.682,97.682,0,0,1-60.446-7.707c-4.916-7.4-8-17.356,2.56-21.075,9.589-3.319,21.291-3,31.286-3.8M317.746,378.686c3.982-7.918,17.471-1.6,23.85-.04,10.4,2.479,20.925,5.519,31.408,7.4,9.264,1.68,20.6,4.2,29.986,2.04,11.011-2.519,6.623-18.076,5.932-25.834-.284-3-1.463-10.2,2.519-11.677,4.307-1.68,10.361,4.6,13,6.639,7.639,5.719,14.911,9.958,24.46,5.159,4.632-2.359,8.858-7.238,14.221-6.039,4.51.96,7.964,4.239,12.23,5.8,10.767,3.839,16.049-7.118,25.841-6.8,5.4.16,11.864,3.159,17.146,4.559a35.621,35.621,0,0,0,10.28,1.4c9.426-.16,21.494,1.76,30.392-2.239,4.672-2.08,7.964-6.958,5.485-12-1.747-3.679-5.485-5.719-9.02-7.278-5.648-2.639-11.824-4.919-17.268-8.078-3.738-2.16-7.07-5.319-10.442-8-3.169-2.519-6.3-5.4-9.873-7.4-5.445-3.119-11.336-5.559-16.984-8.358-7.517-3.679-13.083-10.438-20.153-14.8-8.654-5.319-18.243-7.2-23.525-16.516-2.357-4.239-4.429-9.6-7.639-13.237-3.494-3.8-8.776-6.439-13.083-9.038-8.492-5.159-12.6-13.437-9.183-23.195,6.745-19.676,32.708-22.755,48.635-32.273,2.519-1.44,7.72-4.919,7.842-8.2.2-4.719-7.964-4.519-11.255-4.519a111.955,111.955,0,0,0-30.148,4.839c-8.939,2.719-17.309,7.358-26.41,9.718-4.51,1.24-10.239,2.359-13.449-2.08-3.007-4.2-2.56-10.6-5.485-14.8-8.126-11.477-36.365,25.514-41.972,28.634-7.029,3.959-22.631.48-23.4-9.038-.325-4.879,4.632-9.8,6.3-14,1.788-4.359,1.422-8.2,1.26-12.757a205.678,205.678,0,0,1,1.178-32.033c.447-3.759,1.463-9.478-2.885-11.4-3.738-1.68-9.142-.16-13.246-1.16-9.629-2.519-12.514-15.4-13.164-23.955-.325-5.159.366-9.8,3.7-13.757,2.6-3.119,6.907-4.879,10.442-6.918l17.187-10.2c2.844-1.68,6.907-4,8.654-6.918,4.185-7.278-12.514-19.676-16.537-23.755-12.921-13.037-34.414-20.475-31.9-42.071a15.941,15.941,0,0,1,6.542-11.477c3.86-2.559,8.289-2.16,12.514-2.239,4.794-.16,9.751.16,14.383-.64,5.485-.92,11.011-3,16.5-3.519,4.754-.44,9.02.44,13.611,1.44,3.7.84,11.255,3.679,14.221.44,2.519-2.719-.488-6.958-1.707-9.8L370.526-40.3M954.554,369.208c-6.623-6.958-5.12-17.956-9.467-26.034-4.754-8.638-15.887-10.878-24.988-11.317-10.686-.48-20.072.2-30.27,3.519-3.576,1.16-10.076,2.959-10.93,7.238-.975,4.439,6.095,8.838,8.695,11.317,7.151,6.638,11.7,13.6,11.742,23.675M1228,380.165c-8-6.2-5.241-19.716-6.217-28.394-.975-8.4-5.607-15.277-13.977-17.756-4.672-1.4-9.508-2.519-14.14-4.239-5.119-1.88-9.751-4.879-14.911-6.679-3.7-1.24-10.767-2.8-12.961,1.68-1.91,3.839,1.422,9.718,2.6,13.077,3.088,8.838,6.582,17.636,7.232,26.954" transform="translate(174.371 59.416)"></path><path class="e" d="M373.673-22.8c-4.51,6.519-11.173,11.357-17.634,15.956-6.582,4.679-18.446,10.438-17.268,20,1.138,8.878,9.467,16.756,13.449,24.594,3.535,6.918,9.142,18.116,3.819,25.434s-15.358,9.558-23.81,8.358c-9.751-1.32-20.965-3.959-24.785,7.878-6.42,20.155,9.467,37.192,19.5,53.108,3.738,6,9.873,12.917,3.7,19.276-3.576,3.759-9.345,5.8-12.8,9.718-3.413,3.919-3.535,8.4-2.438,13.237,2.072,8.8,10.2,16.276,9.183,25.794-.447,4.359-3.738,9.118-5.485,13.077-1.869,4.119-5.16,6.958-8.289,10.278-3.372,3.639-5.607,6.279-7.8,10.678-2.357,4.839-2.194,9.2-2.4,14.477-.447,9.118,3.088,18.316,4.063,27.434s-.488,17.676-1.625,26.754c-.934,7.118-1.747,22.115-13.164,15.6-7.395-4.359-9.751-15.4-15.4-21.6-7.314-8-17.268-2.4-25.191,1.32-3.982,1.88-8,4.359-12.23,5.519-5.485,1.56-8.7-1.24-11.5-5.719-2.4-3.8-4.185-7.678-9.142-5.4-3.982,1.84-8.126,6.439-12.921,5.839-7.557-.92-6.623-15.4-6.095-20.915.975-9.478,4.307-21.075,1.341-30.233-1.178-3.679-2.844-7.6-2.4-11.477.488-4.919,2.56-10.2,3.738-15.077,2.194-8.8,5.891-18.316,5.648-27.594-.2-9.758-5-15.756-13.489-20.155l-17.471-8.878c-3.088-1.6-6.582-3.479-8.654-6.279-6.785-9,3.576-17.636,9.264-23.675,2.357-2.4,8.207-7.038,7.476-11.2-.691-3.8-9.467-5.039-12.23-5.879-3.86-1.24-8.329-2.319-11.58-4.879-4.185-3.319-2.113-6.8.163-10.518,2.519-4.119,6.3-8.358,6.135-13.437-.163-3.8-3.007-6.6-5.729-9.118-7.557-7.038-15.155-12.157-20.356-21.4-4.022-6.958-5.16-15.6-11.052-21.435-8.045-8.078-17.471-15.077-25.923-22.835C97.383,9.313,89.785,1.555,88.16-5.124c-3.982-15.956,44.369-11.837,51.886-12.8,3.576-.44,8.167-1.4,10.848-3.8M710.787,375.391c8.289-4.519,11.539-13.037,6.379-21.315-5.932-9.558-15.155-11.2-24.947-15.477a32.281,32.281,0,0,1-10.361-7.2c-3.169-3.2-4.916-7.278-7.72-10.758-6.3-7.6-18.121-6.8-26.694-10.718-7.557-3.439-13.733-9.718-21.169-13.517-4.51-2.319-10.117-4.119-14.14-7.118s-5.891-7.918-8-12.157a27.369,27.369,0,0,0-6.3-8.678c-4.429-3.639-9.955-5.839-14.221-9.6-7.964-7.118-7.395-15.317-1.26-23.315,4.957-6.439,13.936-10.078,21.412-12.957,9.914-3.8,19.584-7.118,28.564-12.6,6.379-3.919,14.911-11.8,16.821-19.236,2.763-10.6-11.58-8.2-17.959-7.038-20.519,3.839-40.346,10.238-60.215,16.4-7.07,2.16-16.5,4.679-16.943-5.079-.2-4.239.772-11-1.585-14.917-2.682-4.6-8.533-2.639-12.514-1.32-7.639,2.519-14.1,8.038-19.747,13.6-4.469,4.439-8.817,9-13.286,13.517-3.007,3-5.81,6.638-9.873,8.318-3.25,1.32-8.979,1.84-9.873-2.8-.853-4.839,2.357-11.357,2.763-16.236.772-8.318-2.4-16.756-1.625-25.074.975-10.518,5.485-19.756,8-29.953.853-3.439,1.706-7.038-2.072-8.558-4.794-1.88-10.6,1.24-15.521,1.6-4.957.44-8.045.04-11.742-3.2-3.047-2.639-4.794-7.878-5.16-11.837-.935-10.438,8.329-15.4,16.334-19.916,8.329-4.679,17.878-7.518,25.963-12.557,8.939-5.559,1.788-12.957-3.7-18.116-7.964-7.278-15.887-14.837-24.3-21.6-6.542-5.319-15.318-8.678-20.478-15.557-5.4-7.038-5.445-18.636,3.9-22.075,4.51-1.68,9.751-1.24,14.546-1.44a109.437,109.437,0,0,0,12.6-1.6c4.469-.68,9.02-2.04,13.611-1.68,4.957.36,9.467,1.88,14.14,3.279,4.266,1.24,24.622,9.2,26.37.92.691-3.479-2.6-7.838-4.266-10.518-3.251-5.359-6.542-10.718-9.711-16.2m603.409,402.39c-3.982-6.678-14.3-5.359-20.844-7.718-8.939-3.279-9.467-11.078-11.174-19.116-1.463-7.2-4.022-13.877-10.767-17.756-13.49-7.918-31.367-6.6-46.238-3.2a166.378,166.378,0,0,0-25.516,7.878c-5.282,2.079-17.024,7.678-9.751,13.4,11.5,8.8,30.879,12.957,30.148,30.433m339.43-17.4c-4.266-12.6-2.6-34.072-19.422-37.552-4.957-1-10.117-.84-15.074-1.84-2.682-.48-5.16-1.72-7.8-2.8-7.557-3.039-15.724-8-24.216-7.238-7.842.68-15.033,5.239-13.164,13.677,1.869,8.4,7.07,16.036,10.767,23.755,3.332,6.958,4.429,13.877,5,21.4" transform="translate(30.682 48.914)"></path><path class="e" d="M378.721-32.9c-7.639,6.039-17.268,9.6-24.988,15.6-3.575,2.8-7.8,6.279-7.314,11.157s4.063,8.718,6.745,12.557c5.4,8.078,13.246,17.2,15.155,26.954,1.1,5.359.691,10.038-4.51,13.2-4.185,2.479-8.045,2.08-12.6,1.76-8.817-.64-21.656-3.479-27.832,4.879-6.379,8.638-5.119,21.875-3.494,31.713.65,3.959,2.194,6.479,4.185,10.118l10.4,18.876c1.95,3.639,3.9,6.638,4.794,10.6.691,3.039,1.341,4.359-.447,7.038a32.671,32.671,0,0,1-4.957,5.359c-3.576,3.519-6.7,6.958-8.126,12-1.463,5.239-.284,9.558,1.1,14.557,1.178,4.4,3.047,9.038,2.072,13.6-1.016,5.039-3.819,9.438-4.673,14.637-1.016,6-3.86,9.438-7.354,14.477a18.846,18.846,0,0,0-3.86,11.517,225.973,225.973,0,0,0,2.275,31.873c1.422,9.758,3.21,18.876-1.422,28.114-3.575,7.4-7.354,1.12-11.173-2.8-3.372-3.479-6.582-5.879-11.742-6.2s-10.442,1.56-15.318,2.8c-4.307,1.12-10.361,3.839-14.871,2.519-5.607-1.56-5.648-8.158-10.239-10.878-4.307-2.519-10.117-.96-14.871-.2-2.275.36-4.673,1.4-6.582.36-2.072-1.16-2.357-4.119-2.357-6.2.041-5.519,2.194-11.557,3.21-17,1.788-9.6,1.138-19.276-.162-28.874-2.438-18.756,9.955-40.551-7.07-55.507-3.86-3.439-8.654-5.559-13.164-7.878-4.307-2.24-10.4-4.239-13.449-8.4-6.3-8.838,10.28-18.076,15.074-22.835,2.763-2.8,7.07-7.278,5.891-11.557-1.341-4.679-7.842-6-11.864-7.2-4.022-1.16-10.6-2.319-12.758-6.319-2.275-4.4,2.519-10.718,3.7-14.957,3.494-12.037-5.973-16.676-14.871-22.355A43.284,43.284,0,0,1,163.3,32.162c-1.585-4-3.007-8.318-5.81-11.637-3.25-3.919-7.8-7.118-11.539-10.518-7.395-6.758-17.268-13.437-22.713-22.035-7.151-11.357,5.607-12.557,13.9-13.037,10.889-.64,22.591-.2,33.439-2.04,4.266-.68,12.027-2.359,14.424-6.519s-.284-10.078-2.56-13.677M733.307,369.086c3.576-2.16,8.654-5.519,11.336-8.678,6.623-7.878,4.022-19.036-1.178-26.914-6.785-10.2-16.334-10.4-26.41-15.876a20.354,20.354,0,0,1-10.076-12c-1.585-4.839-.163-10.438-1.585-15.316-1.706-5.8-6.42-4.2-11.052-3.119-4.957,1.12-9.914,2.36-15.074,1.88-10.564-.96-17.878-7.838-26.694-12.8-4.754-2.719-10.686-4.4-14.912-7.678-3.535-2.719-5.81-7.518-8.126-11.2-2.885-4.719-5.12-6.678-9.63-10.2-4.51-3.479-9.426-6.2-12.311-11-5.81-9.758,7.842-18.556,15.359-22.235,9.142-4.439,19.5-6.519,28.564-11,9.345-4.519,16.455-12.037,23.4-19.436,5.81-6.2,16.009-16.2,5.607-22.835-9.02-5.839-21.738-2.8-31.408-.32-9.955,2.519-19.747,6.279-29.5,9.558-8.654,2.839-19.584,8.318-29.01,8.038-11.336-.28-4.185-17.156-9.955-23.195-6.7-7.038-20.519.16-27.1,4-9.345,5.559-16.049,13.917-24.988,19.876-5.648,3.759-8.492.64-10.6-4.6a43.069,43.069,0,0,1-3.535-14c-.487-10.038,3.576-19.836,8.167-28.634,3.9-7.678,13.489-20.915-.284-24.115-8.695-2.04-21.941,7.358-29.295.76-17.309-15.557,34.374-30.273,42.256-33.073,2.844-1,9.711-2.719,9.711-6.439,0-4.359-7.07-9.558-9.751-12C527.878,49.8,519.67,44,512.113,37.441c-7.964-6.958-15.2-13.877-23.688-20.155-3.575-2.719-8.492-5.719-8.126-10.918.284-4.679,5.16-6.279,9.183-7.238,6.379-1.44,13.164-1.88,19.665-2.8,4.754-.68,8.858-1.56,13.489-.84,11.092,1.6,21.737,6.039,32.545,8.878,5.323,1.4,24.3,4.4,22.1-5.319-.772-3.439-3.982-6.6-5.973-9.558l-12.6-18.116m610.4,394.751c.772-3.959,2.6-10.278-1.178-13.4-3.982-3.2-9.914-1.6-14.383-1.16-9.63.92-21.9,3.839-26.045-7.4-1.869-4.879-1.869-10.4-4.063-15.117-2.6-5.639-5.891-8.318-10.564-12.277-3.819-3.279-8.7-6.479-13.652-7.838-4.307-1.12-10.239-.04-14.708.52a327.61,327.61,0,0,0-32.789,6.519,127.158,127.158,0,0,0-24.785,8.358c-4.51,2.16-27.548,10.838-18.69,18.636,8,7.118,21.006,8.638,30.27,13.4s13.124,12.8,11.173,22.755m351.335-40.031c-2.072-7.038-3.86-14.2-6.217-21.115-1.422-4.119-3.576-8.358-7.8-10.2-5.444-2.359-12.352-1.24-18.04-1.16-6.217.04-9.345-.92-15.318-3.119-10.848-4.119-20.519-7.518-32.342-4.6-4.672,1.12-11.823,3.919-14.14,8.558-2.6,5.239-.162,11.517,1.788,16.436,3.819,9.758,11.5,17.956,13.733,28.394,1.26,5.719,2.763,12.277-.2,17.836-2.6,4.719-7.313,4.919-12.067,5.319-12.758.84-24.3,3.039-36.812,5.719M1024.955-43.461c-3.86,1.32-8.329,2.239-11.58,4.6-5.81,4.2-5.973,8.638-2.682,14.637,4.754,8.558,18.243,12.037,26.613,15.956l21.656,10.038c3.494,1.6,7.07,2.959,10.117,5.239,5.729,4.239,6.867,8.558-.284,12.477-4.022,2.16-10.6,3.519-15.155,4.359-10.767,1.84-22.428,1.24-33.317,1.24a308.032,308.032,0,0,1-34.9-1.6c-11.742-1.32-23.647-4.6-31.123,7.238-5.891,9.278-.284,21.075-4.957,30.633-5,10.2-17.431,12.957-22.713,22.715-5.932,10.878-3.494,21.555,6.582,28.953,5.4,3.959,9.345,5.719,15.724,7.878,5.445,1.84,10.767,2.04,16.5,2.519,5.16.48,10.442.64,15.237,2.959,4.916,2.359,9.914,7.118,3.088,10.878-6.135,3.439-30.717-1.44-30.27,8.158.2,4.919,7.516,8.4,10.4,11.837a41.225,41.225,0,0,1,7.639,15.157c1.422,5.039.935,9.8-2.763,13.6s-8.208,6.519-11.824,10.438c-3.86,4.239-8.817,8.4-11.864,13.237-2.885,4.559-4.469,9.958-6.217,15-3.86,10.838-7.8,21.115-13.408,31.193-2.275,4.2-5.282,12.557-9.752,15-4.469,2.479-5-5.319-5.119-8.558-.284-12.4,1.463-25.114.447-37.552s-7.8-21.635-13.774-32.313a37.37,37.37,0,0,0-9.345-11.357c-3.819-3.279-7.354-6.039-9.508-10.6-5.241-10.758-7.354-21.755-21.087-24.235-13.164-2.4-20.234,10.878-26.9,19.556-3.047,3.919-5.119,7.438-10.6,7.118-5.648-.32-11.661-2.4-15.358-6.758-7.07-8.358-8.939-18.876-4.429-28.834,2.357-5.2,6.907-10.2,7.029-15.956.162-6.758-4.957-9.2-9.954-13.077-1.747-1.32-4.429-2.639-5.729-4.4-1.747-2.319-2.4-6.6-3.494-9.318-1.95-5.2-5-7.878-10.6-8.838-11.58-2.08-24.216-1.32-36.04-1.84-6.216-.28-12.677-.2-18.893-.76-3.738-.32-9.508-.64-12.067-3.679-3.819-4.439,3.738-8.8,7.314-10.718a51.124,51.124,0,0,1,16.5-5.159c11.052-1.84,22.916-.28,33.277-4.919,5.445-2.4,6.785-6.918,5.81-12.557-.772-4.359-5.241-11.078-3.25-15.556,2.357-5.359,9.629-4.679,14.383-4.719,5.891-.04,11.742.36,17.431-1.24,10.4-3.039,15.643-14.4,26.044-17.756,5.119-1.6,12.189-2.8,16.293-6.6,3.535-3.319,6.217-8.678,7.8-13.237,1.788-5.079,3.21-10.4,5.485-15.277,3.047-6.319,6.867-12.4,9.914-18.8m293.842,1.88c-.041,5.359,5.4,10.718,8.329,14.8l10.076,13.717c1.584,2.08,3.047,5.079,5,6.8,6.054,5.319,15.318,2.359,22.225,1.32m0-.04c5.241-2.359,13.977-4.4,15.318-10.918,1.422-7.118-2.072-15.636-3.088-22.595" transform="translate(10.966 63.616)"></path><path class="e" d="M961.786-46.623c3.819,5.559,9.914,10.038,14.383,15.077,3.494,3.919,5.485,9.038,8,13.677,2.4,4.439,4.469,9.038,9.954,10.238,5.12,1.08,11.336-.84,16.537-1.56m0-.04c9.629-2.839,21.169-4.6,29.66-10.2,8.167-5.359-2.357-17.156-3.575-23.995-1.016-5.639-1.95-10.518-1.178-16.276M-39.48,360.526c-8.451-8.318-11.986-20.835-16.456-31.313-1.91-4.439-4.469-8.878-5.16-13.717-1.016-7.278.366-11.4,2.682-18.4,3.819-11.317,13.408-18.556,21.656-26.914,9.63-9.6,1.788-18.6-5.119-26.954-6.582-7.918-16.009-18.6-15.318-29.473.447-6.319,4.632-10.238,7.8-15.557,3.494-5.8,1.706-9.358-1.706-14.677-6.542-10.2-15.643-18.8-22.956-28.394a39.8,39.8,0,0,1-6.623-12.037c-1.91-6.039-1.463-12.317-2.885-18.436-2.56-11-10.4-19.036-9.183-31.153.935-9.038,7.8-23.675-4.266-28.834-11.173-4.719-22.631,11.357-28.157,18.8-7.72,10.518-1.138,21.555,4.185,31.353,5.16,9.558,7.557,18.236,5.323,28.993-2.275,10.6-6.785,22.435-5.932,33.432.975,13.6,5.607,26.914,7.029,40.391,2.275,21.875-19.1,38.991-14.14,60.786,2.275,10.2,4.632,20.035,4.063,30.593l-2.113,45.27m-52.17-184.319c2.519,4.359,8.654,16.276,6.216,20.955-2.438,4.839-7.151,6.958-8.289,12.557-1.95,9.558-.488,20,1.138,29.473,1.788,10.4,2.194,21.635,6.623,31.313,4.063,8.878,12.027,20.635,11.7,31.033-.2,6.439-5.4,7.918-10.4,9.918a160.7,160.7,0,0,0-15.2,6.758c-4.307,2.16-8.207,2.719-12.067-.64m7.964-284.7c5.119-1.56,10.6-3.679,16.049-3.279,5.16.36,7.639,3.759,9.955,7.878,3.007,5.239,5.607,9.958,6.582,16.036,1.788,10.6-7.354,21.555-12.067,30.313-4.185,7.678-8.126,17.6-5,26.274,3.332,9.438,16.009,21.6-3.088,34.312M226.246-43.744c-5.81,9.758-13,18.276-19.99,27.314-6.135,8.038-6.623,15-4.266,24.315C205,19.2,209.221,30.6,208.409,42.437c-.691,10.278-7.964,18.8-10.2,28.634-2.113,9.118-.041,19.276-1.422,28.634-.935,6.119-2.438,12.277-3.7,18.4-.975,5.159-1.463,10.878-3.169,15.876-1.463,4.439-4.185,8.038-7.232,11.4-3.819,4.359-7.72,7.678-7.151,13.757.447,4.239,2.4,7.678,4.673,11.158L192.2,188.244c4.957,7.518,8.858,19.356-1.341,24.555-8.817,4.4-20.966.68-29.295,7.238-8.329,6.519-6.867,18.156-5.485,27.434.691,5.159,1.91,10.438,2.113,15.6.2,6.2-.691,12.557-.691,18.756,0,10.518,2.519,19.276,7.354,28.554,4.754,9,6.217,18.8.284,27.794-3.7,5.559-7.232,2.08-11.661-.68-4.673-2.959-9.183-6.439-14.3-8.518-4.916-1.92-10.239-2.519-15.155,0-4.185,2.16-6.582,7.4-10.686,9.6-3.007,1.6-4.51,1.84-6.907-.2a20.381,20.381,0,0,1-4.266-4.679c-3.007-4.519-5.119-11.2-8.939-15.077-9.711-9.6-17.431,8.2-22.916,13.6-4.957,4.839-7.314,3.679-12.514.44-4.266-2.639-8.329-3.8-13-1.44-3.982,1.92-9.955,9.278-13.489,2.959-2.4-4.359-1.341-10.238-3.576-14.837-4.794-9.6-14.383-11.837-24.338-12.557-5-.32-12.189.64-16.212-2.239-4.185-2.959-1.422-7.278,1.1-10.678C-4.416,284.1,4.32,277.5,7.53,265.307c2.4-9.2.163-19.436-4.063-27.794-2.357-4.6-6.623-9.958-6.217-15.477.447-5.2,5.119-10.278,7.842-14.4,5.607-8.358,11.092-17.6,9.02-27.874S-1.449,164.93-9.7,160.491c-8.451-4.6-17.959-9.8-22.266-18.956-2.6-5.559-1.016-9.2.975-14.477,1.706-4.439,4.673-9.6,3.007-14.237-3.494-9.8-19.99-10.878-18.893-22.955.488-5.879,4.916-11.2,7.029-16.676,1.26-3.279.691-7.2-.772-10.4-2.56-5.519-6.7-10.718-9.955-15.956C-53.66,41.8-56.5,36.318-60.08,31.519-66.174,23.361-75.479,19.2-82.874,12.4c-8-7.478-11.824-18.876-16.7-28.274-4.266-8.318-7.964-18.8-5.4-28.074M263.26,370.283c2.072-4.879-.041-10.038.2-14.957a29.913,29.913,0,0,1,5.729-15.4c7.557-10.4,19.665-.84,27.873,3.639,9.914,5.359,20.234,9.118,30.8,13.237,8.451,3.279,19.665,6,28.848,4.879,13-1.6,8.654-17.836,4.632-25.554-3.047-5.839-18.2-17.916-13.489-25.834,2.357-3.919,11.823-3.679,15.521-3.439a57.307,57.307,0,0,1,13.936,3.2c10.889,3.839,17.959,12.4,27.995,17.636,10.442,5.519,18.406-6.8,26.9-11.2,4.307-2.239,8.858-3.759,13.449-1.4,3.819,2.04,9.183,9.118,13.408,3.639,3.25-4.239-1.95-9.478-4.185-12.757-3.088-4.719-5.648-9.558-10.077-13.2-7.72-6.479-17.959-9.358-23.891-17.756-3.169-4.519-5.16-10.678-8.939-14.677-3.494-3.679-9.345-6.439-13.611-9.278-9.426-6.319-11.58-14.237-13.977-24.714-1.138-4.919-1.91-10.078-5.81-13.757-4.063-3.8-9.264-6.758-13.774-9.958-3.86-2.719-7.842-5.4-12.8-3.519-4.266,1.68-7.639,6.119-10.6,9.318-3.7,3.919-6.7,8.718-12.474,9.8-4.794.96-10.93-.84-15.4-2.519-9.183-3.439-19.056-10.2-26.532-16.2-3.372-2.719-9.345-7.718-5.607-12.477,3.047-3.8,8.7-6,12.433-9.278,8.045-7.278,7.517-19.116,4.794-28.874-1.422-5.159-4.307-7.918-8.776-10.6-5.648-3.319-8.654-5.359-11.377-11.557-3.86-8.8-4.754-19.716-5.891-29.193-1.178-10.238-3.738-19.716,7.07-25.394,7.639-4,23.4-9.038,20.6-20.036-2.844-11-14.627-17.4-21.981-25.034-13-13.437-19.99-38.791-5.607-53.788,8.329-8.678,18.2-5.839,28.807-6.439,8.289-.44,24.622-4.119,26.369-13.437M914.7,371.443c-6.7-7.918-3.819-21.315-13.286-27.634-3.535-2.359-10.239-4.679-14.221-1.6-3.372,2.639-2.56,8.518-2.194,12.477" transform="translate(201.147 71.057)"></path><path class="e" d="M455.329-50.682c-4.673,6.479-10.2,12.6-10.686,20.955-.488,8.718,4.266,15.8,6.3,24.075,1.869,7.518-3.25,13.917-5.81,20.755-5.607,15.157-6.7,32.113-9.183,48.029-1.138,7.038-1.341,14.317-2.438,21.315-.284,1.76-.934,8.158-3.982,6.279-1.706-.96-2.4-7.118-2.844-9.318-1.341-7.6-2.194-15.117-3.86-22.555-1.869-8.078-2.763-17.6-6.623-25.034-3.576-6.918-9.751-10.278-16.293-14.2s-11.986-7.878-15.724-14.557c-3.494-6.119-5.16-13.757-2.113-20.275,3.25-7.118,7.232-13.917,6.42-22.035A83.729,83.729,0,0,0,383.047-60.4M977.964,366.584c6.379-6.519,12.067-16.2,7.232-25.074-1.706-3.119-8.451-7.718-4.429-11.4,3.332-3,10.2-2.959,14.383-3.319,9.264-.96,18.406-4.519,24.216-12.117,3.21-4.2,5.16-7.438,5.729-12.8.447-4.839-.853-9.6-1.91-14.2-1.016-4.6-2.275-9.038-3.047-13.557-.934-5.519-.487-11.557-1.95-16.916-1.016-3.639-3.982-9.2-8.329-6.2-3.535,2.479-4.754,8.038-5.648,11.837-1.178,5.079-1.869,10.238-5.891,14.157-3.535,3.439-8.817,6-12.961,8.8-3.7,2.479-7.557,6.039-11.661,7.6-7.314,2.8-6.3-3.679-9.264-8.2-5.119-7.838-20.844-3.039-24.785-11.4-1.585-3.319.935-8.358,2.4-11.4,2.682-5.519,7.151-11.2,8.858-17.036,3.007-10.278-13.9-11.317-20.356-12.6-4.754-.92-8.451-1.4-12.474-3.759-3.738-2.24-7.72-5.359-11.864-6.518-10.93-3.2-23.2-1.92-34.171-5.079-3.738-1-8.289-3.479-10.564-6.758-1.463-2.08-1.585-3.439-.041-6.2a21.527,21.527,0,0,1,4.794-5.159c8-6.479,19.259-9.958,28.482-14.157,8.167-3.639,15.805-9.758,22.225-15.8,3.494-3.2,6.135-6.439,7.029-11.157.853-4.919-1.26-11.078-3.088-15.6-1.869-4.4-4.429-8.4-8.98-10.038-4.794-1.68-10.239-.2-15.4-.52-11.092-.68-15.806-9.8-21.575-17.836-10.93-15.157-38.4-6.6-53.43-3.919-9.914,1.76-19.99,4.239-29.945,5.159-10.889.96-20.6-4.239-30.595-7.918-3.372-1.24-9.711-2.519-11.336-6.039-2.072-4.439,4.063-6.439,7.151-7.838,7.232-3.319,21.291-7.4,25.313-15.117,4.754-9.2-9.345-16.716-15.155-21.155-6.7-5.319-16.618-11.4-20.031-19.276,1.91,1.08,8.329-1.56,10.6-1.72a87.917,87.917,0,0,1,9.183.04,205.3,205.3,0,0,1,22.1,1.24c13.9,1.84,27.345,7.918,41.484,7.358,5.241-.2,11.377-2.319,16.212-4.439,6.42-2.959,14.708-5.839,20.315-10.2C876.265,23.1,849.977,9.064,844,6.425c-8.126-3.639-16.821-6.679-24.622-11-6.582-3.639-12.758-8.4-19.056-12.6a16.2,16.2,0,0,1,2.357-1.92c1.788-.84,4.266-1.12,6.095-1.6l15.968-4.2c6.623-1.72,13.124-1.56,19.99-1.24,14.79.64,33.114.96,44.369-10.278m340.283-11.317c-5.444,2.559-26.044,8.8-20.234,17.636,4.957,7.518,17.471,10.518,25.76,12.757,9.345,2.519,20.031,2.8,28.807,7.118,4.307,2.08,7.557,5.359,7.07,10.4-.488,4.719-4.307,8.638-7.07,12.4-5.282,7.118-8.329,17.076-16.5,21.4-8.817,4.679-21.087,4.439-30.88,5.159-8.126.52-16.333.28-24.541.44l-41.037.48c-7.232.04-14.79-.16-17.187,8.078-1.625,5.519-1.706,11.8-3.738,17.156-1.707,4.4-5.607,8.638-8.289,12.6-2.072,3.159-6.094,7.678-4.957,11.677s7.07,5.039,10.686,5.639c11.336,2.08,21.494,5.4,32.545,8.558,8.654,2.519,18.568,2.719,26.857,6.039,4.063,1.6,9.873,4.919,7.72,9.8-2.113,5.039-8.045,6.479-12.6,8.638-4.429,2.08-7.964,3.919-10.442,8.358-2.6,4.559-3.047,10.238-5.485,14.917-2.194,4.239-6.542,7.6-8.532,12-1.91,3.959-.975,9.038-.691,13.277.284,5.159.691,9.438-1.422,14.2-1.869,4.119-4.916,6.119-8.289,9.038-8.532,7.358-16.7,14.317-26.126,20.355a45.016,45.016,0,0,0-17.268,20.675c-3.494,8.038-7.232,19.916-1.95,27.874,5.729,8.638,20.478.48,28.157-.68,4.672-.68,9.63-.48,14.383-.64,4.632-.16,8.654-1.16,13.124-2.16,4.266-.96,9.751-3.039,14.221-1.84,3.7,1.08,9.914,5.159,11.052,9,2.072,6.8-13.652,11.517-18.447,13.4L1127,300.639c-7.517,3-14.708,7.358-19.34,14.077-5.932,8.838-4.307,19.556-.691,29.033,1.706,4.559,5.12,8.2,7.354,12.557.65,1.24,1.95,3,1.26,4.359-.853,1.44-3.982,2.16-5.485,2.639M1551.1,231.854c-8.329,5.079-16.781,11.8-27.182,10.118-5.648-.92-10.93-3.759-16.537-4.879a35.715,35.715,0,0,0-12.027,0c-8.451,1.32-17.268,5.319-24.541,9.478-16.537,9.558-37.3,18.556-48.066,35.032-3.25,4.919-5.891,10.438-8.776,15.6-2.357,4.2-4.429,9.6-7.395,13.277-2.438,2.959-7.232,3.919-10.848,4.879-5.16,1.4-10.564,3.639-14.1-1.44-2.885-4.119-4.307-9.758-6.135-14.4-1.422-3.479-3.7-6.958-.691-10.2,3.7-3.959,9.182-6.6,13.408-10.078,3.575-3.039,6.907-6.479,10.361-9.758,15.643-14.677,31.083-29.993,45.019-46.23,1.95-2.319,5.16-6.119,5.445-9.038.488-4.719-5.729-5.359-9.02-5.839-5.607-.84-11.539-1.24-16.984-2.639s-9.426-2.639-8.776-8.678c.975-9.318,4.673-18.6,13-23.435a22.943,22.943,0,0,1,13-3.279c5,.04,11.336,2.519,16.212,1.08,6.745-2.08.285-6.8-3.088-8.518a26.265,26.265,0,0,0-15.318-2.559c-8.654.92-18.609,3.279-25.76,8.2-5.282,3.679-18.853,17.2-26.369,10.6-1.422-1.24-2.4-4.879-3.25-6.519-1.341-2.8-2.6-5.559-4.063-8.318-2.356-4.2-5.81-8-7.72-12.317-2.4-5.4.162-7.4,4.754-10.518,4.429-3,9.589-5.319,14.3-7.878,3.9-2.16,7.029-5.2,10.361-8.078,2.885-2.4,8.857-6,10.6-9.478,2.072-4.119-3.332-6.519-6.3-8.358-5.81-3.519-11.661-7.038-17.471-10.518-4.185-2.519-6.095-3.8-8.939-7.678-2.6-3.519-4.917-7.278-8.208-10.2-6.42-5.639-21.737-14.077-11.376-23.275,8.207-7.278,18.365-4.4,27.873-7.4,4.469-1.4,8.045-5.8,12.6-6.958,5-1.32,11.336.28,16.537-.2,8.329-.76,16.13-5.159,24.541-6.2,6.135-.68,13.124-2.519,19.259-2.239,4.794.2,8.695,3.2,12.514,5.839,7.517,5.159,12.961,14.8,21.453,18.116,4.957,1.92,9.955,2.519,14.708-.28s5.12-7.918,2.072-12.277c-6.216-8.838-17.146-7.118-24.988-13.077-3.576-2.8-6.135-7.4-9.63-10.6s-8.207-6.2-8.289-11.157c0-4.519,2.56-8.558,4.754-12.317,2.682-4.719,5-9.918,8.167-14.357,5.12-7.278,13.611-15.077,22.225-17.756,4.469-1.4,9.182-.52,13.814-.32,6.542.36,13.164.48,19.665,1.12" transform="translate(-143.003 71.478)"></path><path class="e" d="M2010.589-66.6c-7.72,2.959-20.234,5.039-22.591,14.077-2.194,8.558,2.519,18.116,9.02,23.915,6.867,5.959,16.821,7.438,24.947,11.078,3.819,1.76,24.947,11.557,15.643,16.876-7.029,3.959-18.2,2.8-25.922,2.959-9.752.2-19.869,1.32-29.5,0-8.939-1.16-17.269-5.2-26.126-6.039-10.848-1-17.431,2.08-23.85,10.918-5.932,8.2-8.654,17.4-11.661,26.954-1.707,5.359-2.763,5.839-7.557,9.2-4.266,2.959-7.964,5.4-10.686,9.8-4.51,7.2-5.12,18.156-4.795,26.434.284,8.838,7.029,17.916,12.921,24.315,3.251,3.519,7.354,6.479,11.011,9.8,4.023,3.759,3.088,5.839,2.072,11.157-.935,4.6-1.625,8.4-.162,13.037,1.625,5.039,6.054,7.718,8.776,12.037,3.982,6.2-4.185,17.076-7.841,22.275-1.341,1.92-6.135,11-9.467,10.238-4.063-.92-4.51-10.518-5-13.2-.853-4.519-1.747-8.838-4.429-12.8-2.357-3.519-6.542-6.479-9.507-9.358-3.007-2.879-6.379-5.8-9.345-8.838-3.169-3.279-5.729-7.518-9.345-10.278-7.72-6.039-17.959-9.918-26.938-13.677-3.819-1.6-7.842-2.719-11.864-4-4.916-1.56-9.142-2.16-8.045-8.078,1.26-7.038,12.067-17.2,6.379-24.315-5.973-7.518-17.959,0-25.516.16-5.241.16-8-.92-10.442-5.4-2.275-4.2-3.25-9.038-5.4-13.237-1.706-3.319-6.785-8.4-6.867-12.117,0-4.6,7.314-5.319,10.442-6,8.979-2.08,18.081-4.439,21.412-14.077,1.625-4.6.447-9.918,2.56-14.357,2.113-4.359,7.354-6.918,11.255-9.8,7.476-5.559,11.864-13.677,15.643-21.915,3.373-7.518,4.673-15.636,8.776-22.955A213.862,213.862,0,0,0,1871.509-69.4" transform="translate(-978.934 76.878)"></path><path class="e" d="M896.783-59.78c-1.463,13.437,11.7,24.315,11.255,37.792-.528,2.479-10.442-7.2-10.767-7.4a22.484,22.484,0,0,0-11.864-5.039c-7.314-.44-13.286,3.2-18.568,7.718-16.618,14.317-32.789,29.513-50.1,43.03a32.182,32.182,0,0,1-8.451,5.079c-4.429,1.56-6.582.48-6.907-4.359-.65-9,4.957-19.116,8-27.234C815.6-27.067,824.745-42.944,829.458-60.3M15.337,122.179c1.1-9,0-16.356-1.178-25.354-.488-3.439-.691-6.2-2.113-9.278-1.95-4.239-5.445-3.679-9.183-1.24-15.155,9.958,3.7,29.473,12.514,35.912M347.739,297.14c5.648-3.8,11.255-8.4,17.349-11.557,7.517-3.8,16.212-5.639,23.525-9.758,5.485-3.119,11.864-8.4,13.489-14.677,2.072-7.838-5.729-13.917-11.255-18.116-10.889-8.318-28.076-10.278-40.55-4.519-13.408,6.2-26.41,14.557-29.092,29.753-1.585,8.518-.975,16.276,4.632,23.155a22.684,22.684,0,0,0,9.426,6.758c4.632,1.6,8.167.52,12.514-.96m426.827,15.157c5.445-3.8,9.589-6.958,8.289-14-1.26-6.678-6.379-7.838-12.474-5.079-4.754,2.159-9.711,6.958-9.751,12.317.081,7.518,8.329,7.518,13.936,6.758M1004.7,209.2l20.356-2.719c5.729-.76,13.286-.52,18.406-3.919,5.648-3.759,5.81-11.477,7.232-17.476,1.26-5.319,1.707-11.317.366-16.556-1.625-6.519-4.957-11.557-9.629-16.276-2.438-2.4-4.307-4.679-8.289-4-1.95.28-4.307,2.08-5.932,3.319-10.889,8.2-21.941,17.956-30.392,28.634-3.982,5.039-8.126,12.477-7.639,18.876.488,9.6,7.151,9.478,15.521,10.2" transform="translate(84.57 71.418)"></path><path class="e" d="M-177.725,239.3l5.4,36.432c1.178,8.038,5.323,15.4,8.451,22.835,1.585,3.639,3.494,7.4,3.819,11.4.447,5.359-2.357,7.6-6.907,9.6-3.494,1.56-8,3.759-11.742,4.119m2.479-130.091c1.95,3.159,3.9,6.679,3.819,10.4m5.648-152.846C-154,54.1-152.127,70.019-154.321,76.978c-2.885,8.8-9.711,16.436-13.246,25.034-3.494,8.4-6.623,17.836-3.535,26.674,1.463,4.2,4.673,9.8,3.9,14.477-.65,3.759-3.7,6.039-6.907,7.838M225.618-13.722c-6.3,7.358-13.977,14.6-19.259,22.795-3.007,4.719-4.266,8.4-3.088,14,.691,3.679,2.56,7.438,3.819,11.078,3.21,9.118,8.045,18.636,7.476,28.554-.528,9.558-7.557,15.477-11.864,23.435-4.794,8.878-2.763,19.356-2.6,29.033.163,8.8-2.072,17.676-3.372,26.314-1.341,8.878-1.91,15.8-8.939,22.275-3.535,3.279-8.207,6.119-9.426,10.918-1.178,4.839.528,9.2,2.682,13.6,4.063,8.718,10.767,16.276,15.562,24.634,1.788,3.039,3.576,7.038,2.6,10.678-1.138,4.559-5.485,5.239-9.508,5.959-10.848,1.76-18.893,2.839-26.532,11.2-5.485,6-5.119,15.317-4.185,22.955,1.1,8.8,3.372,17.356,3.25,26.274-.163,10.438-1.016,20.635,1.26,30.913,1.422,6.279,9.345,17.676,5.729,23.755-2.682,4.559-9.914.68-13.652-.44-4.591-1.4-8.939-2.639-13.774-2.8-7.8-.2-18.243,9-23.647,1.16-4.307-6.279-5.932-19.276-14.14-21.915-8.817-2.839-16.5,11.317-21.575,16.036-2.4,2.239-4.916,4.119-8.329,3.759-5.445-.64-11.174-2.8-16.537-4.119a27.4,27.4,0,0,1-10.239-4.4c-3.535-2.24-6.907-5.079-10.93-6.439-5.648-1.88-11.661-3.039-17.471-4.6-4.51-1.16-6.379-2.719-4.754-7.6,1.585-4.6,5-8.638,7.314-12.877a42.517,42.517,0,0,0,3.9-11.317c1.707-8.358,1.463-18.636-1.178-26.794-3.088-9.478-8.207-14.957-3.819-25.074,3.372-7.878,9.02-14.557,11.58-22.955,2.682-8.838,3.25-18.876-4.429-25.354-7.395-6.319-17.959-9.2-26.248-14.237-6.379-3.8-14.465-10.6-13.936-18.636.488-6.918,11.255-17.836,7.029-24.794-4.51-7.518-18.406-8.158-20.356-17.356-.853-4.119,2.56-8.8,4.307-12.157,2.6-4.919,4.469-6.958,3.372-12.317-1.585-8-8.776-14.637-13-21.6-5.119-8.358-8.776-17.476-15.805-24.435-6.582-6.479-15.033-10.918-21.087-17.836-5.851-6.6-10.97-15.157-14.871-22.995-3.372-6.8-7.8-18.876.447-24.155M286.076,395.666c4.266-6.918-2.682-18.116,3.7-23.995,6.745-6.2,21.453,3.759,27.548,6.519A166.609,166.609,0,0,0,369,392.107c9.345.92,17.918-1.12,17.674-11.837-.163-9.918-3.007-19.436-6.623-28.514-1.422-3.319-4.429-7.918-.975-10.718,3.576-3,9.711.16,13.246,1.84,8.654,4.119,14.708,12.557,22.591,17.836,3.21,2.159,7.07,4.679,11.051,4.2,4.795-.52,7.476-4,10.889-7.2,3.088-2.839,6.582-7.518,11.5-7.118,4.429.44,8.167,6.638,11.336,9.038,8.533,6.519,14.587-1.88,21.981-5.639,4.063-2.079,7.964-2.24,11.7.44,4.632,3.279,7.07,6.119,12.311,8.318,4.754,1.92,9.183,2.04,14.383,1.4,2.682-.32,10.442-2.04,9.751-6-.447-2.4-5.81-5.359-8.045-6.518l-16.7-8.8c-8.329-4.439-15.358-10.078-22.916-15.756C475.376,322,470.134,315.2,463.43,310.205c-7.8-5.8-17.674-7.678-23.85-15.4-2.844-3.479-4.795-7.878-7.151-11.8-2.438-4.119-3.738-5.359-7.8-8-7.639-4.919-16.293-9.118-18.934-18.316-2.275-7.518-2.6-19.836,3.047-26.034,6.379-7.038,16.212-10.4,23.81-15.876,1.341-.96,3.25-2.16,3.047-3.919-.2-2.04-3.047-2.04-5.241-1.88-3.738.16-7.557,1.6-10.93,3.159l-16.943,7.678c-3.007,1.32-7.07,3-10.361,2.8-4.794-.32-8.289-3.319-11.336-6.519-3.169-3.439-5.932-8.4-11.377-7.678-3.007.44-6.7,3.679-9.02,5.719-4.591,4.119-8.817,8.718-13.164,13.077-6.095,6-13.611,7.6-21.575,3.759a57.5,57.5,0,0,1-12.027-7.118c-3.088-2.359-8.126-5.519-8.045-9.8.041-5.2,6.379-8.4,9.02-12.117a21.264,21.264,0,0,0,4.266-11.157,127.7,127.7,0,0,0-1.138-28.394c-.65-4.519-2.275-6.758-6.542-8.318-4.307-1.56-8.979-2.559-12.23-6.039s-4.022-9-5.282-13.437a113.569,113.569,0,0,1-2.763-13.4c-1.178-8.158-1.95-16.756,5.932-21.635,7.72-4.839,19.259-8.2,25.029-15.636,6.542-8.318-3.7-17.476-8.979-23.675s-13.286-10.2-19.1-16.2c-6.3-6.519-10.6-14.837-11.255-23.915-.65-9.478,3.047-18.436,11.742-23.035,7.8-4.119,17.878-.52,26.248-1.68,4.307-.52,8.776-2.4,12.961-3.519s11.377-1.68,15.033-4.2c3.007-2.04,2.113-6.279,1.463-9.278M947.872,397.746c-3.088-3.439-7.557-5.039-11.052-7.918a23.027,23.027,0,0,1-6.542-9.478c-3.169-8-3.494-18.6-11.661-23.635-7.354-4.439-19.1-6.279-27.588-4.839-3.86.68-8.7,2.24-9.02,6.479-.325,4.559,4.022,9.278,5.729,13.237M1210.632,402.1c-9.467-4.719-10.686-12-11.742-21.435-.975-8.878-.528-17.956-9.914-22.435a34.948,34.948,0,0,0-12.6-3.279c-3.006-.04-3.982,0-5.282,2.239s-.2,8.078-.284,10.518" transform="translate(188.976 48.194)"></path><path class="e" d="M1300.075,366.642a182,182,0,0,1,18.406-14.477c6.379-4.239,12.961-6.119,20.234-8.638,7.029-2.4,15.155-4.239,21.453-8.318,6.867-4.4,5.12-10.238,3.21-16.876-2.072-7.2-5.16-15.117-4.469-22.715a29.673,29.673,0,0,1,9.63-18.6c5.729-5.159,12.189-8.358,19.381-10.918,7.72-2.719,15.521-5.8,23.566-7.278a34.237,34.237,0,0,1,19.99,2.04c7.314,3,13.489,6.2,21.494,4.439m-55.42-306.931c-8.045,11.677-15.155,24.115-26.044,33.472-8.776,7.6-19.34,14.477-30.432,18.276-7.07,2.359-12.189,2.479-19.828,2.479-6.216,0-12.23.16-18.2,2.24-6.582,2.24-12.961,6.2-19.259,9.2a146.425,146.425,0,0,0-14.911,8.4c-5,3.159-10.442,6.479-13.652,11.637-3.007,4.839-4.022,12.717-3.819,18.156.447,12.317,8.939,22.035,17.878,29.673,4.957,4.239,9.711,8.8,14.911,12.6,3.7,2.639,13.489,8.078,10.442,13.4-2.763,4.879-11.377,5.519-16.13,6.679-6.542,1.6-12.6,2.839-18.609,5.639-14.465,6.8-5.4,21.875,2.275,30.313,4.063,4.559,7.354,8.518,7.517,14.837s-1.747,11.357,3.738,15.956c4.957,4.119,9.629,7.038,13.611,12.037,3.982,5.039,7.964,11.677,12.961,15.8,5.648,4.6,12.8,5.359,19.259,8.318,6.3,2.839,4.632,8.038.853,12.717-7.72,9.558-18.04,19.276-29.3,24.634-10.361,4.879-23.525,5.559-34.455,2.8-6.3-1.68-11.539-3.119-18.121-1.92-5.729,1.08-14.871,2.24-18.934,6.479-4.307,4.559-4.754,12-2.56,17.676,1.91,5.079,5.241,11.677,9.345,15.557,5.241,4.879,11.539,2.639,17.878,1.4,6.3-1.24,11.539-1.68,17.349,1.24,12.514,6.279,14.911,17.476,14.586,30.433M1056.94,375.88c11.5-5.519,25.272-6.479,36.649-12.117,6.054-2.959,3.535-6.479-1.422-8.318-7.842-2.959-16.009-5.159-23.891-7.678-9.751-3.119-24.785-9.038-23.119-21.555,1.463-11.677,17.431-17.956,26.613-22.435a252.981,252.981,0,0,1,34.617-13.757c7.8-2.4,15.846-4.439,23.525-7.278,4.469-1.68,10.4-4.679,12.189-9.358s-.2-12.157-4.957-14.677c-5.485-2.839-12.6-2.8-18.243-5.519-5.81-2.8-10.564-8.318-16.984-9.8-6.785-1.6-12.961,1.32-19.259,3.439-5.241,1.76-10.117,2.839-15.643,2.04-7.354-1.12-12.758-1.6-20.072-.76-2.6.28-5.932,1.12-7.557-1.68-1.422-2.359.366-5.719,1.625-7.678,3.738-5.839,11.336-9.038,16.821-13.037,4.957-3.639,8.776-8.678,13-13.077,4.469-4.519,9.426-8.558,14.14-12.757,9.345-8.318,10.442-22.835,14.221-33.872a119.713,119.713,0,0,1,7.151-17c3.006-5.8,7.476-8.158,12.961-11.157s9.955-6,13.733-11c3.372-4.519,8.045-10.438,8.492-16.036.853-10.2-20.762-15.6-28.239-17.636-12.961-3.479-27.344-3.959-38.274-12.4-9.426-7.278-5.81-24.315,4.916-28.394,10.4-3.959,23.647-3.519,34.536-3.679,13.652-.2,27.548.28,41.118-.52,11.742-.68,24.785-2.08,32.383-12,4.022-5.2,6.785-11.357,10.889-16.436,4.022-4.919,9.914-8.638,13.286-14s5.12-12.877,2.844-19.076c-2.4-6.6-8.655-8.638-14.586-11.157-5.81-2.519-11.742-3.319-17.959-4.519-5.4-1-12.23-1.44-16.943-4.679-6.379-4.359,1.1-9.118,4.673-12.117M781.5-48.464c-4.795,4-13.652,2.959-19.34,3-11.864.2-23.525,2.319-35.39,3-13.286.68-26.857,1.92-39.9-.64-5.729-1.12-13.49-4.2-19.34-2.359-7.8,2.479-1.26,10.718,1.95,14.2C677-23.23,687-14.552,696.828-9.633,709.627-3.154,722.3,2.4,734.737,9.723c3.535,2.08,12.758,7.878,6.217,11.2-3.86,1.92-9.508,1.44-13.977,1.08-14.79-1.24-29.742-2.239-44.531-3.919-13.083-1.44-26.207-3.679-39.209-5.519-3.494-.48-33.277-7.718-34.292-.32-.284,1.76,2.885,6,4.022,7.438a55.732,55.732,0,0,0,6.867,6.918c5.485,4.679,11.986,8.518,17.878,12.757,9.63,6.8,21.412,11.4,30.148,19.236,4.266,3.759,10.28,9.558,4.632,14.477-4.429,3.759-11.255,4.559-16.821,5.4-4.957.84-15.562.68-19.259,5.239-3.047,3.759,1.341,11.557.366,16.2-.772,3.519-8.532,14.4-5.444,17.956,3.25,3.679,16.7-.64,20.234-1.24,11.7-1.88,25.476-1.56,34.7,6.439,5.81,5.039,9.02,7.838,16.984,6.8,6.745-.84,13.408-3.639,19.828-5.559a114.489,114.489,0,0,1,34.374-4.679c6.3.16,13.286.48,19.1,3.159,5.12,2.359,8.654,6.279,12.515,10.2,5.932,5.959,12.027,11.637,17.877,17.676,4.023,4.2,2.519,7.918-1.178,12.237-8.492,9.8-23.2,12.757-34.171,19.276-11.823,7.118-22.713,16.076-33.927,24.155-3.251,2.359-8.655,5.4-10.361,9.118-3.169,6.8,3.25,9.8,8.492,11.357,6.379,1.88,12.027,3.159,17.512,6.8,3.088,2.079,6.745,5.559,10.28,6.918,2.194.84,5.485.52,7.964.2,6.217-.96,12.027-4.439,18.243-5.319a38.272,38.272,0,0,1,18.609,2.08c6.095,2.24,11.986,5.639,17.634,8.8,4.754,2.639,9.426,6,9.345,11.877-.2,10.6-18.731,21.4-7.639,31.033,9.264,8.038,24.947,12.477,24.826,26.914a170.086,170.086,0,0,0,1.178,20.835c.691,5.4,1.259,11.677-1.138,16.876-2.763,6-7.964,10.238-12.514,14.8M281.378-66.9c6.745,7.358,14.546,20.755,10.564,30.793-4.672,11.877-23.363,13.517-34.008,15.956-5.282,1.16-11.052,4-5.16,9.2,4.185,3.679,9.873,6.039,12.758,10.918,3.494,5.8,4.307,12.4,8.492,17.916,3.21,4.239,8.329,6.758,13.246,9,7.232,3.319,14.871,5.959,22.225,8.878,4.754,1.92,9.873,5.4,9.955,11.078.163,7.358-7.8,10.718-9.955,16.916-2.072,5.839,5.323,11,8.857,14.8,4.307,4.679,5.932,9.278,4.794,15.557-1.178,6.678-6.217,11.637-8.126,17.956-1.707,5.519,1.706,10.518,3.7,15.477,2.519,6.039,5.648,12.277,7.639,18.556,2.072,6.758,2.885,14.2,4.307,21.155,1.26,6.2,4.022,9.758,7.72,15.157,3.372,5.039,4.916,11.517,8.329,16.2,5.16,6.918,8.532.2,9.589-5.039a149.162,149.162,0,0,0,2.763-17.916c.488-6.279.041-13.437,2.072-19.436,2.275-6.758,5.81-11.8,9.873-17.6,3.819-5.4,3.819-10.278,4.022-16.756.041-2.639-.163-5.359.65-7.838,1.178-3.679,3.9-6.918,5.119-10.6,1.869-5.639-.488-11.8-2.072-17.236-3.372-12.117-3.535-24.155-2.194-36.672,1.138-10.518,1.706-26.034,12.23-31.873,5.891-3.279,12.677-2.519,18.771-4.919,6.42-2.559,2.072-8.678-.772-12.477-6.42-8.518-22.388-20.835-17.309-33.273,2.072-5.079,8.167-9.2,12.067-12.6,4.794-4.2,9.589-9.118,14.871-12.6" transform="translate(-65.713 75.378)"></path></g></g></svg>